<svg xmlns="http://www.w3.org/2000/svg" xmlns:xlink="http://www.w3.org/1999/xlink" width="500" zoomAndPan="magnify" viewBox="0 0 375 374.999991" height="500" preserveAspectRatio="xMidYMid meet" version="1.2"><defs><clipPath id="b7c6cf4d0b"><path d="M 6 69 L 368.894531 69 L 368.894531 305.960938 L 6 305.960938 Z M 6 69 "/></clipPath><clipPath id="647394cdf7"><path d="M 6 236 L 368.894531 236 L 368.894531 305.960938 L 6 305.960938 Z M 6 236 "/></clipPath><clipPath id="98a4c83a75"><path d="M 5.894531 68.960938 L 368.894531 68.960938 L 368.894531 305.960938 L 5.894531 305.960938 Z M 5.894531 68.960938 "/></clipPath></defs><g id="52697a91a9"><g clip-rule="nonzero" clip-path="url(#b7c6cf4d0b)"><path style=" stroke:none;fill-rule:nonzero;fill:#32312b;fill-opacity:1;" d="M 217.789062 305.746094 C 217.773438 305.746094 217.757812 305.742188 217.746094 305.738281 L 127.410156 279.199219 C 127.34375 279.179688 127.296875 279.121094 127.296875 279.050781 C 127.296875 278.984375 127.34375 278.921875 127.40625 278.902344 L 149.484375 272.417969 L 149.484375 270.683594 L 122.261719 262.683594 L 93.503906 271.199219 C 93.488281 271.203125 93.472656 271.207031 93.457031 271.207031 C 93.445312 271.207031 93.429688 271.203125 93.417969 271.199219 L 85.015625 268.734375 L 6.238281 245.558594 C 6.171875 245.539062 6.125 245.476562 6.125 245.410156 C 6.125 245.339844 6.171875 245.28125 6.238281 245.261719 L 25.148438 239.699219 L 25.148438 159.9375 C 25.171875 159.855469 25.1875 159.828125 25.210938 159.8125 C 25.226562 159.796875 25.257812 159.792969 25.296875 159.792969 L 25.328125 159.792969 L 25.367188 159.78125 L 77.1875 144.558594 L 77.1875 108.617188 C 77.1875 108.566406 77.210938 108.519531 77.25 108.492188 C 77.277344 108.472656 77.308594 108.460938 77.34375 108.460938 C 77.359375 108.460938 77.371094 108.464844 77.386719 108.46875 L 77.445312 108.484375 L 211.25 69.171875 C 211.265625 69.167969 211.28125 69.167969 211.292969 69.167969 C 211.308594 69.167969 211.324219 69.167969 211.335938 69.171875 L 345.714844 108.480469 L 345.785156 108.515625 L 345.878906 108.503906 L 346.003906 108.46875 C 346.015625 108.464844 346.03125 108.460938 346.046875 108.460938 C 346.078125 108.460938 346.113281 108.472656 346.140625 108.492188 C 346.179688 108.519531 346.203125 108.566406 346.203125 108.617188 L 346.203125 236.011719 L 368.550781 242.574219 C 368.617188 242.59375 368.664062 242.65625 368.664062 242.722656 C 368.664062 242.792969 368.617188 242.851562 368.550781 242.871094 L 286.089844 267.101562 L 286.089844 270.753906 L 310.992188 278.066406 C 311.058594 278.085938 311.101562 278.148438 311.101562 278.214844 C 311.101562 278.28125 311.058594 278.34375 310.992188 278.363281 L 217.832031 305.738281 C 217.816406 305.742188 217.804688 305.746094 217.789062 305.746094 Z M 217.789062 305.746094 "/></g><g clip-rule="nonzero" clip-path="url(#647394cdf7)"><path style=" stroke:none;fill-rule:nonzero;fill:#efeee4;fill-opacity:1;" d="M 149.640625 270.566406 L 122.261719 262.523438 L 93.457031 271.050781 L 85.0625 268.585938 L 17.058594 248.578125 L 6.28125 245.410156 L 17.058594 242.238281 L 25.300781 239.8125 L 25.300781 242.433594 L 93.449219 262.453125 L 110.648438 257.359375 L 97.4375 261.273438 L 97.4375 250.703125 L 104.367188 248.667969 L 118.511719 244.515625 L 118.511719 255.03125 L 122.253906 253.921875 L 149.640625 261.96875 Z M 346.046875 236.125 L 346.046875 240.726562 L 285.933594 258.390625 L 285.933594 266.988281 L 368.507812 242.722656 Z M 285.933594 276.972656 L 217.789062 296.996094 L 149.640625 276.972656 L 149.640625 272.535156 L 127.453125 279.050781 L 217.789062 305.589844 L 294.175781 283.144531 L 310.949219 278.214844 L 285.933594 270.867188 Z M 285.933594 276.972656 "/></g><path style=" stroke:none;fill-rule:nonzero;fill:#ccd9ea;fill-opacity:1;" d="M 77.445312 108.644531 L 77.34375 108.675781 L 77.34375 108.617188 Z M 346.046875 108.617188 L 346.046875 240.726562 L 285.933594 258.390625 L 285.933594 276.972656 L 217.789062 296.996094 L 149.640625 276.972656 L 149.640625 261.96875 L 122.253906 253.921875 L 118.511719 255.03125 L 118.511719 244.515625 L 104.367188 248.667969 L 97.4375 250.703125 L 97.4375 261.273438 L 110.648438 257.359375 L 93.449219 262.453125 L 25.300781 242.433594 L 25.300781 159.9375 L 25.347656 159.949219 L 25.300781 159.964844 L 65.605469 171.734375 L 77.34375 175.167969 L 77.34375 175.160156 L 93.460938 179.867188 L 115.90625 173.289062 L 122.5 171.355469 L 122.492188 171.355469 L 77.34375 158.171875 L 77.34375 108.675781 L 149.640625 129.785156 L 149.640625 125.875 L 90.699219 108.664062 L 211.296875 73.234375 L 332.316406 108.632812 L 285.933594 122.234375 L 285.933594 126.210938 Z M 327.25 195.066406 L 340.847656 191.074219 L 340.847656 118.621094 L 327.25 122.601562 Z M 306.59375 201.15625 L 320.1875 197.164062 L 320.1875 124.710938 L 306.59375 128.691406 Z M 285.933594 134.777344 L 285.933594 207.246094 L 286.511719 207.078125 L 299.53125 203.25 L 299.53125 130.800781 Z M 159.65625 231.839844 L 171.570312 235.339844 L 171.570312 203.585938 L 159.65625 200.101562 Z M 171.570312 187.339844 L 171.570312 164.644531 L 159.65625 161.15625 L 159.65625 192.898438 L 171.570312 196.398438 Z M 177.757812 237.175781 L 189.671875 240.675781 L 189.671875 208.921875 L 177.757812 205.4375 Z M 189.671875 182.019531 L 189.671875 169.980469 L 177.757812 166.492188 L 177.757812 198.234375 L 189.671875 201.734375 Z M 177.757812 138.003906 L 177.757812 159.386719 L 189.671875 162.886719 L 189.671875 125.644531 L 177.757812 122.15625 Z M 261.21875 121.1875 L 249.304688 124.671875 L 249.304688 161.917969 L 261.21875 158.417969 Z M 231.203125 167.25 L 243.117188 163.75 L 243.117188 126.519531 L 231.203125 130.007812 Z M 195.859375 139.367188 L 195.859375 164.722656 L 207.769531 168.222656 L 207.769531 130.976562 L 195.859375 127.492188 Z M 195.859375 180.203125 L 195.859375 203.570312 L 207.769531 207.070312 L 207.769531 175.3125 L 195.859375 171.828125 Z M 195.859375 242.511719 L 207.769531 246.011719 L 207.769531 214.257812 L 195.859375 210.769531 Z M 231.203125 245.042969 L 243.117188 241.542969 L 243.117188 209.800781 L 231.203125 213.289062 Z M 243.117188 185.542969 L 243.117188 170.859375 L 231.203125 174.34375 L 231.203125 206.097656 L 243.117188 202.597656 Z M 249.304688 239.707031 L 261.21875 236.207031 L 261.21875 204.464844 L 249.304688 207.953125 Z M 261.21875 190.859375 L 261.21875 165.523438 L 249.304688 169.007812 L 249.304688 200.761719 L 261.21875 197.261719 Z M 267.402344 234.371094 L 279.316406 230.871094 L 279.316406 199.128906 L 267.402344 202.617188 Z M 272.085938 194.054688 L 279.316406 191.929688 L 279.316406 160.1875 L 267.402344 163.675781 L 267.402344 195.429688 Z M 279.316406 124.175781 L 279.316406 115.851562 L 267.402344 119.335938 L 267.402344 156.582031 L 279.316406 153.082031 Z M 149.640625 106.234375 L 192.199219 118.664062 L 217.800781 126.136719 L 285.742188 106.214844 L 217.585938 86.273438 L 149.691406 106.222656 Z M 159.65625 132.710938 L 159.65625 154.050781 L 171.570312 157.550781 L 171.570312 120.308594 L 159.65625 116.820312 Z M 130.132812 166.925781 L 144.171875 171.050781 L 144.171875 133.628906 L 130.132812 129.519531 Z M 101.511719 121.054688 L 87.46875 116.945312 L 87.46875 154.351562 L 101.511719 158.476562 Z M 122.839844 164.765625 L 122.839844 127.339844 L 108.800781 123.230469 L 108.800781 160.640625 Z M 97.4375 221.964844 L 118.511719 215.722656 L 118.511719 205.207031 L 97.4375 211.394531 Z M 118.511719 202.019531 L 118.511719 191.507812 L 97.4375 197.695312 L 97.4375 208.265625 Z M 97.4375 183.992188 L 97.4375 194.5625 L 118.511719 188.320312 L 118.511719 177.804688 Z M 74.851562 213.40625 L 77.34375 214.136719 L 86.765625 216.90625 L 86.765625 185.152344 L 77.34375 182.394531 L 74.851562 181.664062 Z M 56.753906 208.070312 L 68.667969 211.570312 L 68.667969 179.816406 L 56.753906 176.328125 Z M 38.652344 202.734375 L 50.566406 206.234375 L 50.566406 174.480469 L 38.652344 170.992188 Z M 50.566406 232.382812 L 50.566406 214.847656 L 38.652344 211.359375 L 38.652344 243.101562 L 50.566406 246.601562 Z M 68.667969 227.058594 L 68.667969 220.183594 L 56.753906 216.695312 L 56.753906 248.4375 L 68.667969 251.9375 Z M 86.765625 243.496094 L 86.765625 225.519531 L 80.316406 223.628906 L 77.34375 222.761719 L 74.851562 222.03125 L 74.851562 253.773438 L 86.765625 257.273438 Z M 118.511719 229.421875 L 118.511719 218.90625 L 97.4375 225.09375 L 97.4375 235.664062 Z M 144.171875 214.308594 L 137.503906 212.355469 L 130.132812 210.199219 L 130.132812 247.605469 L 144.171875 251.730469 Z M 144.171875 195.386719 L 144.171875 173.96875 L 130.132812 169.859375 L 130.132812 207.265625 L 141.394531 210.574219 L 144.171875 211.390625 Z M 171.570312 268.410156 L 171.570312 243.953125 L 159.65625 240.46875 L 159.65625 272.210938 L 171.570312 275.710938 Z M 189.671875 273.730469 L 189.671875 249.289062 L 177.757812 245.804688 L 177.757812 277.542969 L 189.671875 281.042969 Z M 207.769531 279.046875 L 207.769531 254.625 L 195.859375 251.136719 L 195.859375 282.878906 L 207.769531 286.378906 Z M 243.117188 270.96875 L 243.117188 250.167969 L 231.203125 253.65625 L 231.203125 285.410156 L 243.117188 281.910156 Z M 261.21875 265.652344 L 261.21875 244.832031 L 249.304688 248.320312 L 249.304688 280.074219 L 261.21875 276.574219 Z M 279.316406 260.332031 L 279.316406 239.5 L 267.402344 242.984375 L 267.402344 274.738281 L 279.316406 271.238281 Z M 299.53125 222.464844 L 299.53125 211.359375 L 286.511719 215.171875 L 285.933594 215.339844 L 285.933594 251.582031 L 299.53125 247.585938 Z M 320.1875 228.53125 L 320.1875 205.273438 L 306.59375 209.25 L 306.59375 245.492188 L 320.1875 241.5 Z M 340.847656 234.597656 L 340.847656 199.183594 L 327.25 203.164062 L 327.25 239.402344 L 340.847656 235.410156 Z M 217.796875 122.226562 L 162.996094 106.226562 L 217.585938 90.1875 L 221.445312 91.316406 L 217.558594 91.882812 L 207.734375 94.765625 L 207.707031 94.777344 L 214.660156 93.757812 L 217.589844 93.328125 L 222.953125 91.753906 L 222.960938 91.757812 L 227.46875 90.4375 L 227.46875 93.078125 L 272.390625 106.21875 Z M 225.953125 105.121094 L 225.953125 99.027344 L 223.03125 99.882812 L 223.03125 105.980469 L 224.292969 105.609375 L 225.953125 105.125 Z M 77.144531 148.648438 L 38.652344 159.953125 L 77.34375 171.25 L 93.460938 175.957031 L 115.820312 169.40625 L 77.34375 158.171875 Z M 77.144531 148.648438 "/><path style=" stroke:none;fill-rule:nonzero;fill:#2e70dc;fill-opacity:1;" d="M 101.511719 158.476562 L 87.46875 154.351562 L 87.46875 116.945312 L 101.511719 121.054688 Z M 108.800781 160.640625 L 122.839844 164.765625 L 122.839844 127.339844 L 108.800781 123.230469 Z M 130.132812 166.925781 L 144.171875 171.050781 L 144.171875 133.628906 L 130.132812 129.519531 Z M 130.132812 207.265625 L 141.394531 210.574219 L 144.171875 211.390625 L 144.171875 173.96875 L 130.132812 169.859375 Z M 130.132812 210.199219 L 130.132812 247.605469 L 144.171875 251.730469 L 144.171875 214.308594 L 137.503906 212.355469 Z M 159.65625 190.839844 L 159.65625 192.898438 L 171.570312 196.398438 L 171.570312 164.644531 L 159.65625 161.15625 Z M 177.757812 185.519531 L 177.757812 198.234375 L 189.671875 201.734375 L 189.671875 169.980469 L 177.757812 166.492188 Z M 195.859375 180.203125 L 195.859375 203.570312 L 207.769531 207.070312 L 207.769531 175.3125 L 195.859375 171.828125 Z M 159.65625 231.839844 L 171.570312 235.339844 L 171.570312 203.585938 L 159.65625 200.101562 Z M 177.757812 237.175781 L 189.671875 240.675781 L 189.671875 208.921875 L 177.757812 205.4375 Z M 195.859375 242.511719 L 207.769531 246.011719 L 207.769531 214.257812 L 195.859375 210.769531 Z M 159.65625 264.910156 L 159.65625 272.210938 L 171.570312 275.710938 L 171.570312 243.953125 L 159.65625 240.46875 Z M 177.757812 270.230469 L 177.757812 277.542969 L 189.671875 281.042969 L 189.671875 249.289062 L 177.757812 245.804688 Z M 195.859375 275.546875 L 195.859375 282.878906 L 207.769531 286.378906 L 207.769531 254.625 L 195.859375 251.136719 Z M 267.402344 127.667969 L 267.402344 156.582031 L 279.316406 153.082031 L 279.316406 115.851562 L 267.402344 119.335938 Z M 249.304688 132.976562 L 249.304688 161.917969 L 261.21875 158.417969 L 261.21875 121.1875 L 249.304688 124.671875 Z M 231.203125 138.285156 L 231.203125 167.25 L 243.117188 163.75 L 243.117188 126.519531 L 231.203125 130.007812 Z M 267.402344 192.675781 L 267.402344 195.429688 L 272.085938 194.054688 L 279.316406 191.929688 L 279.316406 160.1875 L 267.402344 163.675781 Z M 249.304688 187.359375 L 249.304688 200.761719 L 261.21875 197.261719 L 261.21875 165.523438 L 249.304688 169.007812 Z M 231.203125 182.042969 L 231.203125 206.097656 L 243.117188 202.597656 L 243.117188 170.859375 L 231.203125 174.34375 Z M 267.402344 234.371094 L 279.316406 230.871094 L 279.316406 199.128906 L 267.402344 202.617188 Z M 249.304688 239.707031 L 261.21875 236.207031 L 261.21875 204.464844 L 249.304688 207.953125 Z M 231.203125 245.042969 L 243.117188 241.542969 L 243.117188 209.800781 L 231.203125 213.289062 Z M 267.402344 263.832031 L 267.402344 274.738281 L 279.316406 271.238281 L 279.316406 239.5 L 267.402344 242.984375 Z M 249.304688 269.152344 L 249.304688 280.074219 L 261.21875 276.574219 L 261.21875 244.832031 L 249.304688 248.320312 Z M 231.203125 274.46875 L 231.203125 285.410156 L 243.117188 281.910156 L 243.117188 250.167969 L 231.203125 253.65625 Z M 159.65625 128.796875 L 159.65625 154.050781 L 171.570312 157.550781 L 171.570312 120.308594 L 159.65625 116.820312 Z M 177.757812 134.082031 L 177.757812 159.386719 L 189.671875 162.886719 L 189.671875 125.644531 L 177.757812 122.15625 Z M 195.859375 139.367188 L 195.859375 164.722656 L 207.769531 168.222656 L 207.769531 130.976562 L 195.859375 127.492188 Z M 97.4375 235.664062 L 118.511719 229.421875 L 118.511719 218.90625 L 97.4375 225.09375 Z M 97.4375 218.59375 L 97.4375 221.964844 L 118.511719 215.722656 L 118.511719 205.207031 L 97.4375 211.394531 Z M 97.4375 208.265625 L 118.511719 202.019531 L 118.511719 191.507812 L 97.4375 197.695312 Z M 97.4375 194.5625 L 118.511719 188.320312 L 118.511719 177.804688 L 97.4375 183.992188 Z M 327.25 122.601562 L 327.25 195.066406 L 340.847656 191.074219 L 340.847656 118.621094 Z M 306.59375 201.15625 L 320.1875 197.164062 L 320.1875 124.710938 L 306.59375 128.691406 Z M 285.933594 198.121094 L 285.933594 207.246094 L 286.511719 207.078125 L 299.53125 203.25 L 299.53125 130.800781 L 285.933594 134.777344 Z M 327.25 230.605469 L 327.25 239.402344 L 340.847656 235.410156 L 340.847656 199.183594 L 327.25 203.164062 Z M 306.59375 224.539062 L 306.59375 245.492188 L 320.1875 241.5 L 320.1875 205.273438 L 306.59375 209.25 Z M 285.933594 215.339844 L 285.933594 251.582031 L 299.53125 247.585938 L 299.53125 211.359375 L 286.511719 215.171875 Z M 38.652344 202.734375 L 50.566406 206.234375 L 50.566406 174.480469 L 38.652344 170.992188 Z M 56.753906 208.070312 L 68.667969 211.570312 L 68.667969 179.816406 L 56.753906 176.328125 Z M 74.851562 181.664062 L 74.851562 213.40625 L 77.34375 214.136719 L 86.765625 216.90625 L 86.765625 185.152344 L 77.34375 182.394531 Z M 38.652344 235.886719 L 38.652344 243.101562 L 50.566406 246.601562 L 50.566406 214.847656 L 38.652344 211.359375 Z M 56.753906 230.5625 L 56.753906 248.4375 L 68.667969 251.9375 L 68.667969 220.183594 L 56.753906 216.695312 Z M 77.34375 222.761719 L 74.851562 222.03125 L 74.851562 253.773438 L 86.765625 257.273438 L 86.765625 225.519531 L 80.316406 223.628906 Z M 223.03125 105.980469 L 224.292969 105.609375 L 225.953125 105.125 L 225.953125 99.027344 L 223.03125 99.882812 Z M 223.03125 105.980469 "/><path style=" stroke:none;fill-rule:nonzero;fill:#ffffff;fill-opacity:1;" d="M 285.933594 122.234375 L 332.316406 108.632812 L 211.296875 73.234375 L 90.699219 108.664062 L 149.640625 125.875 L 149.640625 129.785156 L 77.34375 108.675781 L 77.445312 108.644531 L 211.292969 69.320312 L 345.671875 108.628906 L 285.933594 126.148438 Z M 217.585938 86.273438 L 285.742188 106.214844 L 217.800781 126.136719 L 192.199219 118.664062 L 149.640625 106.234375 L 149.691406 106.222656 Z M 217.585938 90.1875 L 162.996094 106.226562 L 217.796875 122.226562 L 272.390625 106.21875 L 227.46875 93.078125 L 227.46875 90.4375 L 222.960938 91.757812 L 222.953125 91.753906 L 217.589844 93.328125 L 214.660156 93.757812 L 207.707031 94.777344 L 207.734375 94.765625 L 217.558594 91.882812 L 221.445312 91.316406 Z M 77.34375 158.171875 L 115.820312 169.40625 L 93.460938 175.957031 L 77.34375 171.25 L 38.652344 159.953125 L 77.144531 148.648438 L 77.34375 158.171875 C 77.34375 158.171875 77.34375 150.25 77.34375 144.675781 L 25.347656 159.949219 L 25.300781 159.964844 L 65.605469 171.734375 L 77.34375 175.160156 L 93.460938 179.867188 L 115.90625 173.289062 L 122.5 171.355469 L 122.492188 171.355469 Z M 77.34375 158.171875 "/><g clip-rule="nonzero" clip-path="url(#98a4c83a75)"><path style=" stroke:none;fill-rule:nonzero;fill:#32312b;fill-opacity:1;" d="M 368.609375 242.378906 L 346.40625 235.855469 L 346.40625 108.617188 C 346.40625 108.503906 346.355469 108.394531 346.261719 108.328125 C 346.171875 108.257812 346.054688 108.238281 345.945312 108.269531 L 345.820312 108.304688 C 345.804688 108.300781 345.789062 108.289062 345.773438 108.285156 L 211.394531 68.976562 C 211.328125 68.957031 211.257812 68.957031 211.191406 68.976562 L 77.445312 108.269531 C 77.335938 108.238281 77.21875 108.257812 77.128906 108.328125 C 77.035156 108.394531 76.984375 108.503906 76.984375 108.617188 L 76.984375 144.40625 L 25.308594 159.585938 C 25.230469 159.582031 25.152344 159.597656 25.085938 159.648438 C 25.019531 159.695312 24.984375 159.765625 24.964844 159.84375 C 24.960938 159.851562 24.957031 159.859375 24.957031 159.867188 C 24.953125 159.890625 24.941406 159.914062 24.941406 159.9375 L 24.941406 239.542969 L 6.179688 245.0625 C 6.027344 245.105469 5.921875 245.25 5.921875 245.410156 C 5.921875 245.570312 6.027344 245.710938 6.179688 245.753906 L 84.957031 268.933594 L 93.355469 271.398438 C 93.425781 271.417969 93.496094 271.417969 93.5625 271.398438 L 122.261719 262.898438 L 149.28125 270.835938 L 149.28125 272.265625 L 127.351562 278.707031 C 127.195312 278.75 127.089844 278.890625 127.089844 279.050781 C 127.089844 279.210938 127.195312 279.351562 127.351562 279.398438 L 217.6875 305.9375 C 217.71875 305.945312 217.753906 305.953125 217.789062 305.953125 C 217.824219 305.953125 217.855469 305.945312 217.890625 305.9375 L 311.050781 278.5625 C 311.203125 278.515625 311.308594 278.375 311.308594 278.214844 C 311.308594 278.054688 311.203125 277.914062 311.050781 277.867188 L 286.296875 270.597656 L 286.296875 267.257812 L 368.609375 243.070312 C 368.761719 243.023438 368.867188 242.882812 368.867188 242.722656 C 368.867188 242.5625 368.761719 242.421875 368.609375 242.378906 Z M 286.296875 266.503906 L 286.296875 258.660156 L 346.148438 241.074219 C 346.300781 241.027344 346.40625 240.886719 346.40625 240.726562 L 346.40625 236.609375 L 367.226562 242.722656 Z M 285.574219 267.46875 L 285.574219 276.703125 L 223.566406 294.921875 L 223.566406 124.835938 L 285.574219 106.6875 L 285.574219 137.75 C 285.429688 137.828125 285.347656 137.996094 285.398438 138.160156 C 285.425781 138.257812 285.492188 138.328125 285.574219 138.375 L 285.574219 174.851562 C 285.429688 174.933594 285.347656 175.097656 285.398438 175.261719 C 285.425781 175.359375 285.492188 175.429688 285.574219 175.476562 L 285.574219 202.574219 C 285.429688 202.652344 285.347656 202.820312 285.398438 202.984375 C 285.425781 203.078125 285.492188 203.152344 285.574219 203.195312 L 285.574219 219.238281 C 285.429688 219.316406 285.347656 219.484375 285.398438 219.648438 C 285.425781 219.742188 285.492188 219.816406 285.574219 219.859375 L 285.574219 247.109375 C 285.429688 247.191406 285.347656 247.355469 285.398438 247.523438 C 285.425781 247.617188 285.492188 247.691406 285.574219 247.734375 Z M 149.28125 273.015625 L 149.28125 276.972656 C 149.28125 277.132812 149.386719 277.273438 149.539062 277.320312 L 217.6875 297.339844 C 217.71875 297.351562 217.753906 297.355469 217.789062 297.355469 C 217.820312 297.355469 217.855469 297.351562 217.890625 297.339844 L 286.035156 277.320312 C 286.191406 277.273438 286.296875 277.132812 286.296875 276.972656 L 286.296875 271.351562 L 309.667969 278.214844 L 217.789062 305.214844 L 128.730469 279.050781 Z M 150 272.050781 L 150 106.71875 L 192.113281 119.011719 L 217.425781 126.421875 L 217.425781 296.511719 L 150 276.703125 Z M 122.160156 262.175781 L 93.457031 270.675781 L 7.558594 245.410156 L 24.941406 240.296875 L 24.941406 242.433594 C 24.941406 242.59375 25.046875 242.734375 25.199219 242.777344 L 93.347656 262.800781 C 93.378906 262.808594 93.414062 262.816406 93.449219 262.816406 C 93.484375 262.816406 93.519531 262.808594 93.550781 262.800781 L 97.539062 261.617188 C 97.542969 261.617188 97.542969 261.617188 97.542969 261.617188 L 118.617188 255.375 L 122.253906 254.296875 L 149.28125 262.238281 L 149.28125 270.085938 L 122.363281 262.175781 C 122.296875 262.15625 122.226562 262.15625 122.160156 262.175781 Z M 26.628906 159.949219 L 76.984375 145.15625 L 76.984375 148.320312 L 38.550781 159.609375 C 38.398438 159.652344 38.292969 159.796875 38.292969 159.953125 C 38.292969 160.117188 38.398438 160.257812 38.550781 160.300781 L 45.726562 162.394531 C 45.78125 162.539062 45.914062 162.632812 46.0625 162.632812 C 46.097656 162.632812 46.132812 162.628906 46.164062 162.617188 L 46.324219 162.570312 L 76.984375 171.519531 L 77.703125 171.730469 L 93.359375 176.300781 C 93.394531 176.3125 93.425781 176.316406 93.460938 176.316406 C 93.496094 176.316406 93.53125 176.3125 93.5625 176.300781 L 115.820312 169.78125 L 121.207031 171.355469 L 121.214844 171.355469 L 116.046875 172.871094 L 93.460938 179.492188 L 77.703125 174.890625 L 76.984375 174.679688 L 65.652344 171.371094 L 32.613281 161.722656 C 32.605469 161.714844 32.601562 161.703125 32.59375 161.695312 C 32.527344 161.628906 32.4375 161.589844 32.339844 161.589844 C 32.316406 161.589844 32.296875 161.597656 32.277344 161.601562 C 32.261719 161.605469 32.246094 161.605469 32.230469 161.609375 L 28.828125 160.617188 C 28.769531 160.578125 28.703125 160.550781 28.628906 160.550781 C 28.621094 160.550781 28.617188 160.554688 28.609375 160.554688 L 26.585938 159.960938 Z M 78.726562 108.644531 L 211.292969 69.699219 L 344.386719 108.628906 L 286.296875 125.664062 L 286.296875 122.503906 L 332.417969 108.980469 C 332.570312 108.9375 332.675781 108.792969 332.675781 108.632812 C 332.675781 108.472656 332.570312 108.332031 332.417969 108.289062 L 211.398438 72.886719 C 211.332031 72.867188 211.261719 72.867188 211.195312 72.886719 L 90.597656 108.320312 C 90.441406 108.363281 90.335938 108.503906 90.335938 108.664062 C 90.335938 108.824219 90.445312 108.964844 90.597656 109.011719 L 149.28125 126.144531 L 149.28125 129.304688 L 78.628906 108.675781 Z M 222.84375 140.359375 L 222.84375 295.132812 L 218.148438 296.511719 L 218.148438 126.421875 L 222.84375 125.046875 Z M 28.988281 239.105469 L 28.988281 161.414062 L 31.976562 162.289062 L 31.976562 244.019531 L 28.988281 243.140625 Z M 149.28125 130.054688 L 149.28125 261.488281 L 122.863281 253.726562 L 122.863281 171.351562 C 122.863281 171.324219 122.851562 171.300781 122.84375 171.273438 C 122.84375 171.261719 122.839844 171.246094 122.835938 171.230469 C 122.824219 171.203125 122.808594 171.175781 122.792969 171.148438 C 122.785156 171.140625 122.777344 171.132812 122.769531 171.125 C 122.753906 171.101562 122.742188 171.078125 122.71875 171.0625 C 122.6875 171.039062 122.652344 171.027344 122.613281 171.015625 C 122.609375 171.015625 122.605469 171.011719 122.597656 171.007812 L 122.59375 171.007812 L 122.554688 170.996094 L 77.703125 157.898438 L 77.703125 109.15625 Z M 122.140625 253.578125 L 121.613281 253.734375 L 120.976562 253.921875 L 118.875 254.546875 L 118.875 244.515625 C 118.875 244.402344 118.820312 244.292969 118.730469 244.226562 C 118.636719 244.15625 118.519531 244.136719 118.410156 244.167969 L 104.367188 248.292969 L 103.085938 248.667969 L 97.335938 250.355469 C 97.183594 250.402344 97.078125 250.542969 97.078125 250.703125 L 97.078125 261.003906 L 93.808594 261.972656 L 93.808594 180.152344 L 116.070312 173.617188 L 122.140625 171.835938 Z M 97.945312 260.746094 L 97.800781 260.789062 L 97.800781 250.972656 L 104.367188 249.042969 L 105.648438 248.667969 L 107.613281 248.089844 L 107.613281 257.882812 Z M 118.152344 254.761719 L 108.335938 257.667969 L 108.335938 247.878906 L 118.152344 244.996094 Z M 32.699219 238.011719 L 32.699219 162.5 L 65.359375 172.035156 L 76.984375 175.4375 L 77.703125 175.648438 L 93.089844 180.152344 L 93.089844 261.972656 L 32.699219 244.230469 Z M 114.535156 169.40625 L 108.550781 171.160156 L 77.703125 162.152344 L 77.605469 162.121094 L 77.691406 158.648438 L 77.703125 158.652344 Z M 39.9375 159.953125 L 76.796875 149.125 L 76.871094 152.84375 L 46.324219 161.820312 Z M 76.886719 153.589844 L 76.984375 158.171875 L 76.875 162.382812 C 76.875 162.484375 76.917969 162.574219 76.984375 162.640625 C 77.023438 162.683594 77.074219 162.71875 77.136719 162.738281 L 77.34375 162.796875 L 77.703125 162.902344 L 107.265625 171.535156 L 93.460938 175.578125 L 77.703125 170.980469 L 76.984375 170.769531 L 47.609375 162.195312 Z M 150.976562 106.21875 L 217.585938 86.652344 L 284.460938 106.214844 L 217.800781 125.761719 L 192.4375 118.355469 L 150.925781 106.234375 Z M 286.152344 105.917969 C 286.058594 105.847656 285.941406 105.828125 285.832031 105.859375 L 285.828125 105.863281 L 217.6875 85.929688 C 217.621094 85.910156 217.550781 85.910156 217.484375 85.929688 L 149.660156 105.855469 C 149.574219 105.851562 149.492188 105.867188 149.425781 105.917969 C 149.359375 105.964844 149.320312 106.039062 149.300781 106.117188 C 149.300781 106.125 149.296875 106.128906 149.296875 106.136719 C 149.292969 106.160156 149.28125 106.183594 149.28125 106.207031 L 149.28125 125.394531 L 104.597656 112.347656 L 211.296875 81 L 318.417969 112.335938 L 286.296875 121.753906 L 286.296875 106.207031 C 286.296875 106.09375 286.242188 105.984375 286.152344 105.917969 Z M 91.980469 108.664062 L 210.9375 73.714844 L 210.9375 80.351562 L 103.3125 111.972656 Z M 319.699219 111.957031 L 211.65625 80.351562 L 211.65625 73.714844 L 331.03125 108.636719 Z M 299.171875 221.980469 L 299.171875 243.117188 L 286.296875 246.882812 L 286.296875 219.761719 L 287.675781 219.355469 L 288.957031 218.980469 L 299.171875 215.992188 Z M 286.296875 247.636719 L 299.171875 243.867188 L 299.171875 247.316406 L 286.296875 251.101562 Z M 299.171875 215.242188 L 287.675781 218.605469 L 287.035156 218.792969 L 286.398438 218.980469 L 286.296875 219.007812 L 286.296875 215.609375 L 286.511719 215.546875 L 286.871094 215.441406 L 299.171875 211.84375 Z M 286.296875 203.097656 L 286.511719 203.035156 L 286.871094 202.929688 L 299.171875 199.328125 L 299.171875 202.980469 L 286.871094 206.59375 L 286.511719 206.699219 L 286.296875 206.765625 Z M 286.296875 138.273438 L 299.171875 134.507812 L 299.171875 170.855469 L 286.296875 174.625 Z M 299.171875 133.753906 L 286.296875 137.523438 L 286.296875 135.050781 L 299.171875 131.28125 Z M 286.296875 197.851562 L 286.296875 175.375 L 299.171875 171.609375 L 299.171875 198.578125 L 286.871094 202.175781 L 286.511719 202.28125 L 286.296875 202.34375 Z M 345.6875 236.019531 L 345.6875 240.457031 L 286.296875 257.90625 L 286.296875 251.851562 L 299.632812 247.933594 C 299.785156 247.886719 299.890625 247.746094 299.890625 247.585938 L 299.890625 211.359375 C 299.890625 211.246094 299.839844 211.140625 299.75 211.074219 C 299.65625 211.003906 299.539062 210.984375 299.429688 211.015625 L 286.871094 214.691406 L 286.511719 214.796875 L 286.296875 214.859375 L 286.296875 207.515625 L 286.511719 207.453125 L 286.871094 207.347656 L 299.632812 203.597656 C 299.785156 203.550781 299.890625 203.410156 299.890625 203.25 L 299.890625 130.800781 C 299.890625 130.683594 299.839844 130.578125 299.75 130.511719 C 299.65625 130.441406 299.539062 130.421875 299.429688 130.453125 L 286.296875 134.296875 L 286.296875 126.480469 L 345.6875 109.097656 Z M 25.664062 239.332031 L 25.664062 160.445312 L 28.269531 161.203125 L 28.269531 242.929688 L 25.664062 242.164062 Z M 129.773438 207.265625 C 129.773438 207.425781 129.878906 207.566406 130.03125 207.613281 L 141.035156 210.84375 L 141.394531 210.953125 L 141.757812 211.058594 L 144.070312 211.738281 C 144.105469 211.746094 144.136719 211.753906 144.171875 211.753906 C 144.25 211.753906 144.324219 211.726562 144.390625 211.679688 C 144.480469 211.613281 144.535156 211.503906 144.535156 211.390625 L 144.535156 173.96875 C 144.535156 173.808594 144.425781 173.667969 144.273438 173.621094 L 130.234375 169.511719 C 130.125 169.480469 130.007812 169.5 129.914062 169.570312 C 129.824219 169.636719 129.773438 169.746094 129.773438 169.859375 L 129.773438 204.027344 C 129.761719 204.046875 129.75 204.058594 129.742188 204.078125 C 129.714844 204.171875 129.730469 204.269531 129.773438 204.347656 Z M 143.8125 195.117188 L 143.8125 207.820312 L 141.757812 207.21875 L 141.394531 207.113281 L 141.035156 207.007812 L 130.492188 203.921875 L 130.492188 170.339844 L 143.8125 174.238281 Z M 141.035156 207.761719 L 141.394531 207.867188 L 141.757812 207.972656 L 143.8125 208.574219 L 143.8125 210.910156 L 141.757812 210.304688 L 141.394531 210.199219 L 141.035156 210.09375 L 130.492188 206.996094 L 130.492188 204.675781 Z M 129.773438 247.605469 C 129.773438 247.765625 129.878906 247.90625 130.03125 247.953125 L 144.070312 252.074219 C 144.105469 252.085938 144.136719 252.089844 144.171875 252.089844 C 144.25 252.089844 144.324219 252.066406 144.390625 252.019531 C 144.480469 251.949219 144.535156 251.84375 144.535156 251.730469 L 144.535156 214.308594 C 144.535156 214.148438 144.425781 214.003906 144.273438 213.960938 L 138.785156 212.355469 L 137.503906 211.980469 L 130.234375 209.851562 C 130.125 209.820312 130.007812 209.839844 129.914062 209.910156 C 129.824219 209.976562 129.773438 210.082031 129.773438 210.199219 L 129.773438 244.027344 C 129.761719 244.042969 129.75 244.058594 129.742188 244.078125 C 129.714844 244.171875 129.730469 244.265625 129.773438 244.347656 Z M 130.492188 214.414062 L 130.492188 210.679688 L 136.222656 212.355469 L 137.503906 212.730469 L 143.8125 214.578125 L 143.8125 247.820312 L 130.492188 243.921875 Z M 130.492188 244.675781 L 143.8125 248.574219 L 143.8125 251.246094 L 130.492188 247.335938 Z M 217.796875 122.585938 C 217.832031 122.585938 217.867188 122.582031 217.898438 122.570312 L 272.492188 106.5625 C 272.644531 106.519531 272.75 106.378906 272.75 106.21875 C 272.75 106.058594 272.644531 105.917969 272.492188 105.871094 L 227.828125 92.804688 L 227.828125 90.4375 C 227.828125 90.324219 227.773438 90.21875 227.683594 90.148438 C 227.625 90.105469 227.550781 90.089844 227.476562 90.085938 C 227.449219 90.082031 227.417969 90.078125 227.386719 90.082031 L 221.46875 90.945312 L 217.6875 89.839844 C 217.621094 89.820312 217.550781 89.820312 217.484375 89.839844 L 162.894531 105.878906 C 162.738281 105.925781 162.632812 106.066406 162.632812 106.226562 C 162.636719 106.386719 162.742188 106.527344 162.894531 106.570312 L 217.699219 122.570312 C 217.730469 122.582031 217.765625 122.585938 217.796875 122.585938 Z M 164.277344 106.222656 L 217.226562 90.667969 L 217.226562 91.601562 L 207.660156 94.414062 L 207.652344 94.414062 C 207.648438 94.414062 207.644531 94.417969 207.636719 94.417969 L 207.605469 94.429688 C 207.601562 94.429688 207.597656 94.433594 207.597656 94.433594 C 207.558594 94.445312 207.523438 94.464844 207.492188 94.488281 C 207.484375 94.492188 207.480469 94.496094 207.476562 94.5 C 207.449219 94.523438 207.425781 94.550781 207.40625 94.578125 C 207.402344 94.589844 207.394531 94.597656 207.390625 94.609375 C 207.375 94.632812 207.367188 94.660156 207.359375 94.6875 C 207.355469 94.707031 207.351562 94.722656 207.351562 94.742188 C 207.351562 94.75 207.34375 94.761719 207.34375 94.769531 L 207.34375 100.207031 L 175.609375 109.53125 Z M 259.773438 109.539062 L 227.828125 100.195312 L 227.828125 93.558594 L 271.105469 106.21875 Z M 208.066406 100.75 L 208.066406 95.085938 L 214.613281 94.128906 L 217.226562 93.746094 L 217.226562 107.097656 L 208.066406 104.410156 Z M 223.390625 100.152344 L 225.539062 99.527344 L 225.59375 99.507812 L 225.59375 104.851562 L 224.628906 105.136719 L 223.390625 105.5 Z M 227.105469 92.59375 L 227.105469 104.410156 L 226.316406 104.640625 L 226.316406 99.027344 C 226.316406 98.914062 226.261719 98.808594 226.171875 98.738281 C 226.078125 98.671875 225.960938 98.648438 225.851562 98.683594 L 224.25 99.148438 L 222.964844 99.523438 L 222.929688 99.535156 C 222.777344 99.582031 222.671875 99.722656 222.671875 99.882812 L 222.671875 105.710938 L 217.949219 107.097656 L 217.949219 93.601562 L 222.960938 92.132812 L 223.601562 91.945312 L 224.246094 91.757812 L 227.105469 90.921875 Z M 222.308594 91.566406 L 221.667969 91.757812 L 217.949219 92.847656 L 217.511719 92.976562 L 217.226562 93.015625 L 214.453125 93.421875 L 212.734375 93.675781 L 212.742188 93.671875 L 217.226562 92.355469 L 217.632812 92.234375 L 217.949219 92.1875 L 221.417969 91.683594 L 222.273438 91.558594 L 222.414062 91.539062 Z M 217.949219 91.460938 L 217.949219 90.667969 L 219.753906 91.195312 Z M 207.34375 100.960938 L 207.34375 104.679688 C 207.34375 104.839844 207.449219 104.980469 207.605469 105.023438 L 217.484375 107.925781 C 217.519531 107.9375 217.554688 107.941406 217.585938 107.941406 C 217.621094 107.941406 217.65625 107.9375 217.6875 107.925781 L 223.863281 106.113281 L 226.054688 105.46875 C 226.058594 105.46875 226.058594 105.46875 226.058594 105.46875 L 227.570312 105.023438 C 227.722656 104.980469 227.828125 104.839844 227.828125 104.679688 L 227.828125 100.949219 L 258.492188 109.917969 L 217.796875 121.847656 L 176.894531 109.90625 Z M 159.554688 193.246094 L 171.46875 196.746094 C 171.503906 196.753906 171.539062 196.757812 171.570312 196.757812 C 171.648438 196.757812 171.722656 196.734375 171.789062 196.6875 C 171.878906 196.617188 171.933594 196.511719 171.933594 196.398438 L 171.933594 164.644531 C 171.933594 164.484375 171.828125 164.34375 171.671875 164.296875 L 159.757812 160.8125 C 159.648438 160.777344 159.53125 160.800781 159.441406 160.867188 C 159.351562 160.9375 159.296875 161.042969 159.296875 161.15625 L 159.296875 192.898438 C 159.296875 193.058594 159.402344 193.199219 159.554688 193.246094 Z M 171.210938 167.140625 L 160.019531 163.867188 L 160.019531 161.636719 L 171.210938 164.914062 Z M 171.210938 167.894531 L 171.210938 193.34375 L 161.792969 190.589844 L 161.148438 190.402344 L 160.507812 190.214844 L 160.019531 190.070312 L 160.019531 164.617188 Z M 160.019531 191.109375 L 160.019531 190.820312 L 160.507812 190.964844 L 171.210938 194.097656 L 171.210938 195.917969 L 160.019531 192.628906 Z M 177.65625 198.578125 L 189.570312 202.078125 C 189.601562 202.089844 189.636719 202.09375 189.671875 202.09375 C 189.75 202.09375 189.824219 202.070312 189.886719 202.023438 C 189.976562 201.953125 190.03125 201.847656 190.03125 201.734375 L 190.03125 169.980469 C 190.03125 169.820312 189.925781 169.679688 189.773438 169.632812 L 177.859375 166.144531 C 177.75 166.113281 177.632812 166.136719 177.542969 166.203125 C 177.449219 166.269531 177.398438 166.378906 177.398438 166.492188 L 177.398438 198.234375 C 177.398438 198.394531 177.503906 198.535156 177.65625 198.578125 Z M 178.117188 185.414062 L 178.117188 169.953125 L 189.308594 173.226562 L 189.308594 198.679688 L 178.117188 195.40625 Z M 189.308594 172.476562 L 178.117188 169.199219 L 178.117188 166.972656 L 189.308594 170.25 Z M 178.117188 196.15625 L 189.308594 199.433594 L 189.308594 201.25 L 178.117188 197.964844 Z M 195.757812 203.914062 L 207.667969 207.414062 C 207.703125 207.425781 207.738281 207.429688 207.769531 207.429688 C 207.847656 207.429688 207.925781 207.40625 207.988281 207.359375 C 208.078125 207.289062 208.132812 207.183594 208.132812 207.070312 L 208.132812 175.3125 C 208.132812 175.152344 208.027344 175.011719 207.871094 174.96875 L 195.957031 171.480469 C 195.847656 171.449219 195.730469 171.46875 195.640625 171.539062 C 195.550781 171.605469 195.496094 171.714844 195.496094 171.828125 L 195.496094 203.570312 C 195.496094 203.730469 195.601562 203.871094 195.757812 203.914062 Z M 196.21875 180.097656 L 196.21875 175.289062 L 203.777344 177.5 L 205.058594 177.875 L 207.410156 178.5625 L 207.410156 204.015625 L 196.21875 200.738281 Z M 207.410156 176.433594 L 207.410156 177.8125 L 206.34375 177.5 L 205.699219 177.3125 L 205.058594 177.125 L 196.21875 174.535156 L 196.21875 172.308594 L 207.410156 175.585938 Z M 196.21875 201.492188 L 207.410156 204.765625 L 207.410156 206.585938 L 196.21875 203.296875 Z M 159.554688 232.1875 L 171.46875 235.6875 C 171.503906 235.699219 171.539062 235.703125 171.570312 235.703125 C 171.648438 235.703125 171.722656 235.679688 171.789062 235.628906 C 171.878906 235.5625 171.933594 235.457031 171.933594 235.339844 L 171.933594 203.585938 C 171.933594 203.425781 171.828125 203.285156 171.671875 203.242188 L 159.757812 199.753906 C 159.648438 199.722656 159.53125 199.742188 159.441406 199.8125 C 159.351562 199.878906 159.296875 199.988281 159.296875 200.101562 L 159.296875 231.839844 C 159.296875 232 159.402344 232.144531 159.554688 232.1875 Z M 160.019531 229.703125 L 171.210938 232.976562 L 171.210938 234.859375 L 160.019531 231.570312 Z M 171.210938 206.253906 L 160.019531 202.976562 L 160.019531 200.582031 L 171.210938 203.859375 Z M 171.210938 207.003906 L 171.210938 232.226562 L 160.019531 228.949219 L 160.019531 203.730469 Z M 177.65625 237.523438 L 189.570312 241.023438 C 189.601562 241.03125 189.636719 241.039062 189.671875 241.039062 C 189.75 241.039062 189.824219 241.011719 189.886719 240.964844 C 189.976562 240.898438 190.03125 240.789062 190.03125 240.675781 L 190.03125 208.921875 C 190.03125 208.761719 189.925781 208.621094 189.773438 208.578125 L 177.859375 205.089844 C 177.75 205.058594 177.632812 205.078125 177.542969 205.148438 C 177.449219 205.214844 177.398438 205.320312 177.398438 205.4375 L 177.398438 237.175781 C 177.398438 237.335938 177.503906 237.476562 177.65625 237.523438 Z M 178.117188 235.035156 L 189.308594 238.3125 L 189.308594 240.195312 L 178.117188 236.90625 Z M 189.308594 211.589844 L 178.117188 208.3125 L 178.117188 205.917969 L 189.308594 209.191406 Z M 189.308594 212.339844 L 189.308594 237.5625 L 178.117188 234.285156 L 178.117188 209.066406 Z M 195.757812 242.859375 L 207.667969 246.359375 C 207.703125 246.367188 207.738281 246.371094 207.769531 246.371094 C 207.847656 246.371094 207.925781 246.347656 207.988281 246.300781 C 208.078125 246.234375 208.132812 246.125 208.132812 246.011719 L 208.132812 214.257812 C 208.132812 214.097656 208.027344 213.957031 207.871094 213.910156 L 195.957031 210.425781 C 195.847656 210.394531 195.730469 210.414062 195.640625 210.480469 C 195.550781 210.550781 195.496094 210.65625 195.496094 210.769531 L 195.496094 242.511719 C 195.496094 242.671875 195.601562 242.8125 195.757812 242.859375 Z M 196.21875 240.371094 L 207.410156 243.648438 L 207.410156 245.53125 L 196.21875 242.242188 Z M 207.410156 216.925781 L 196.21875 213.648438 L 196.21875 211.253906 L 207.410156 214.527344 Z M 207.410156 217.675781 L 207.410156 242.894531 L 196.21875 239.621094 L 196.21875 214.398438 Z M 159.554688 272.554688 L 171.46875 276.054688 C 171.503906 276.066406 171.539062 276.070312 171.570312 276.070312 C 171.648438 276.070312 171.722656 276.046875 171.789062 276 C 171.878906 275.929688 171.933594 275.824219 171.933594 275.710938 L 171.933594 243.953125 C 171.933594 243.792969 171.828125 243.652344 171.671875 243.609375 L 159.757812 240.121094 C 159.648438 240.089844 159.53125 240.113281 159.441406 240.179688 C 159.351562 240.246094 159.296875 240.355469 159.296875 240.46875 L 159.296875 272.210938 C 159.296875 272.371094 159.402344 272.511719 159.554688 272.554688 Z M 160.019531 265.019531 L 160.019531 244.085938 L 171.210938 247.359375 L 171.210938 271.636719 L 160.019531 268.359375 Z M 171.210938 246.609375 L 160.019531 243.332031 L 160.019531 240.949219 L 171.210938 244.226562 Z M 160.019531 269.113281 L 171.210938 272.386719 L 171.210938 275.226562 L 160.019531 271.9375 Z M 177.65625 277.890625 L 189.570312 281.390625 C 189.601562 281.402344 189.636719 281.40625 189.671875 281.40625 C 189.75 281.40625 189.824219 281.378906 189.886719 281.332031 C 189.976562 281.265625 190.03125 281.160156 190.03125 281.042969 L 190.03125 249.289062 C 190.03125 249.128906 189.925781 248.988281 189.773438 248.945312 L 177.859375 245.457031 C 177.75 245.425781 177.632812 245.445312 177.542969 245.515625 C 177.449219 245.582031 177.398438 245.691406 177.398438 245.804688 L 177.398438 277.542969 C 177.398438 277.703125 177.503906 277.84375 177.65625 277.890625 Z M 178.117188 270.335938 L 178.117188 249.421875 L 189.308594 252.695312 L 189.308594 276.972656 L 178.117188 273.695312 Z M 189.308594 251.945312 L 178.117188 248.667969 L 178.117188 246.285156 L 189.308594 249.5625 Z M 178.117188 274.449219 L 189.308594 277.722656 L 189.308594 280.5625 L 178.117188 277.273438 Z M 195.757812 283.226562 L 207.667969 286.726562 C 207.703125 286.734375 207.738281 286.742188 207.769531 286.742188 C 207.847656 286.742188 207.925781 286.714844 207.988281 286.667969 C 208.078125 286.601562 208.132812 286.492188 208.132812 286.378906 L 208.132812 254.625 C 208.132812 254.464844 208.027344 254.324219 207.871094 254.277344 L 195.957031 250.792969 C 195.847656 250.761719 195.730469 250.78125 195.640625 250.851562 C 195.550781 250.917969 195.496094 251.023438 195.496094 251.136719 L 195.496094 282.878906 C 195.496094 283.039062 195.601562 283.179688 195.757812 283.226562 Z M 196.21875 275.652344 L 196.21875 254.757812 L 207.410156 258.03125 L 207.410156 282.304688 L 196.21875 279.03125 Z M 207.410156 257.28125 L 196.21875 254.003906 L 196.21875 251.621094 L 207.410156 254.894531 Z M 196.21875 279.78125 L 207.410156 283.058594 L 207.410156 285.898438 L 196.21875 282.609375 Z M 279.214844 115.503906 L 267.300781 118.992188 C 267.148438 119.035156 267.042969 119.175781 267.042969 119.335938 L 267.042969 156.582031 C 267.042969 156.695312 267.097656 156.800781 267.1875 156.871094 C 267.25 156.917969 267.328125 156.941406 267.402344 156.941406 C 267.4375 156.941406 267.472656 156.9375 267.503906 156.925781 L 279.417969 153.425781 C 279.574219 153.382812 279.679688 153.242188 279.679688 153.082031 L 279.679688 115.851562 C 279.679688 115.738281 279.625 115.628906 279.535156 115.5625 C 279.441406 115.492188 279.324219 115.472656 279.214844 115.503906 Z M 278.957031 123.90625 L 278.957031 150.847656 L 267.765625 154.121094 L 267.765625 122.839844 L 278.957031 119.5625 Z M 278.957031 152.8125 L 267.765625 156.097656 L 267.765625 154.875 L 278.957031 151.597656 Z M 267.765625 119.609375 L 278.957031 116.332031 L 278.957031 118.8125 L 267.765625 122.089844 Z M 261.117188 120.839844 L 249.203125 124.328125 C 249.046875 124.371094 248.941406 124.511719 248.941406 124.671875 L 248.941406 161.917969 C 248.941406 162.03125 248.996094 162.136719 249.085938 162.207031 C 249.152344 162.253906 249.226562 162.277344 249.304688 162.277344 C 249.335938 162.277344 249.371094 162.273438 249.40625 162.261719 L 261.320312 158.761719 C 261.472656 158.71875 261.578125 158.578125 261.578125 158.417969 L 261.578125 121.1875 C 261.578125 121.074219 261.523438 120.964844 261.433594 120.898438 C 261.34375 120.828125 261.226562 120.808594 261.117188 120.839844 Z M 260.855469 129.214844 L 260.855469 156.179688 L 249.664062 159.457031 L 249.664062 128.175781 L 260.855469 124.898438 Z M 260.855469 158.148438 L 249.664062 161.433594 L 249.664062 160.207031 L 260.855469 156.933594 Z M 249.664062 124.945312 L 260.855469 121.667969 L 260.855469 124.148438 L 249.664062 127.421875 Z M 243.015625 126.175781 L 231.101562 129.660156 C 230.949219 129.707031 230.84375 129.847656 230.84375 130.007812 L 230.84375 167.25 C 230.84375 167.367188 230.898438 167.472656 230.988281 167.539062 C 231.050781 167.589844 231.125 167.613281 231.203125 167.613281 C 231.238281 167.613281 231.273438 167.609375 231.304688 167.597656 L 243.21875 164.097656 C 243.371094 164.054688 243.476562 163.910156 243.476562 163.75 L 243.476562 126.519531 C 243.476562 126.40625 243.425781 126.300781 243.332031 126.230469 C 243.242188 126.164062 243.125 126.144531 243.015625 126.175781 Z M 242.757812 134.519531 L 242.757812 161.515625 L 231.566406 164.792969 L 231.566406 133.511719 L 242.757812 130.234375 Z M 242.757812 163.480469 L 231.566406 166.769531 L 231.566406 165.542969 L 242.757812 162.269531 Z M 231.566406 130.277344 L 242.757812 127.003906 L 242.757812 129.484375 L 231.566406 132.757812 Z M 279.214844 159.839844 L 267.300781 163.328125 C 267.148438 163.371094 267.042969 163.511719 267.042969 163.675781 L 267.042969 195.429688 C 267.042969 195.542969 267.097656 195.648438 267.1875 195.71875 C 267.25 195.765625 267.328125 195.789062 267.402344 195.789062 C 267.4375 195.789062 267.472656 195.785156 267.503906 195.773438 L 272.085938 194.429688 L 273.367188 194.054688 L 279.417969 192.273438 C 279.574219 192.230469 279.679688 192.089844 279.679688 191.929688 L 279.679688 160.1875 C 279.679688 160.074219 279.625 159.964844 279.535156 159.898438 C 279.441406 159.832031 279.324219 159.808594 279.214844 159.839844 Z M 278.957031 191.65625 L 272.085938 193.675781 L 271.445312 193.863281 L 270.804688 194.054688 L 267.765625 194.945312 L 267.765625 193.753906 L 268.777344 193.457031 L 269.417969 193.269531 L 270.0625 193.082031 L 278.957031 190.476562 Z M 267.765625 163.945312 L 278.957031 160.667969 L 278.957031 163.523438 L 267.765625 166.796875 Z M 267.765625 192.40625 L 267.765625 167.550781 L 278.957031 164.273438 L 278.957031 189.726562 L 268.777344 192.707031 L 268.136719 192.894531 L 267.765625 193.003906 Z M 261.117188 165.175781 L 249.203125 168.664062 C 249.046875 168.707031 248.941406 168.847656 248.941406 169.007812 L 248.941406 200.761719 C 248.941406 200.878906 248.996094 200.984375 249.085938 201.050781 C 249.152344 201.097656 249.226562 201.125 249.304688 201.125 C 249.335938 201.125 249.371094 201.121094 249.40625 201.109375 L 261.320312 197.609375 C 261.472656 197.566406 261.578125 197.421875 261.578125 197.261719 L 261.578125 165.523438 C 261.578125 165.410156 261.523438 165.300781 261.433594 165.234375 C 261.34375 165.164062 261.226562 165.144531 261.117188 165.175781 Z M 260.855469 190.378906 L 260.855469 195.0625 L 249.664062 198.335938 L 249.664062 172.886719 L 260.855469 169.609375 Z M 260.855469 196.992188 L 249.664062 200.28125 L 249.664062 199.089844 L 260.855469 195.8125 Z M 249.664062 169.28125 L 260.855469 166.003906 L 260.855469 168.859375 L 249.664062 172.132812 Z M 243.015625 170.511719 L 231.101562 173.996094 C 230.949219 174.042969 230.84375 174.183594 230.84375 174.34375 L 230.84375 206.097656 C 230.84375 206.210938 230.898438 206.320312 230.988281 206.386719 C 231.050781 206.433594 231.125 206.460938 231.203125 206.460938 C 231.238281 206.460938 231.273438 206.453125 231.304688 206.445312 L 243.21875 202.945312 C 243.371094 202.898438 243.476562 202.757812 243.476562 202.597656 L 243.476562 170.855469 C 243.476562 170.742188 243.425781 170.636719 243.332031 170.570312 C 243.242188 170.5 243.125 170.480469 243.015625 170.511719 Z M 242.757812 185.058594 L 242.757812 200.398438 L 231.566406 203.671875 L 231.566406 178.222656 L 242.757812 174.945312 Z M 242.757812 202.328125 L 231.566406 205.617188 L 231.566406 204.425781 L 242.757812 201.148438 Z M 231.566406 174.613281 L 242.757812 171.339844 L 242.757812 174.191406 L 231.566406 177.46875 Z M 279.214844 198.785156 L 267.300781 202.269531 C 267.148438 202.316406 267.042969 202.457031 267.042969 202.617188 L 267.042969 234.371094 C 267.042969 234.484375 267.097656 234.59375 267.1875 234.660156 C 267.25 234.707031 267.328125 234.734375 267.402344 234.734375 C 267.4375 234.734375 267.472656 234.726562 267.503906 234.71875 L 279.417969 231.21875 C 279.574219 231.171875 279.679688 231.03125 279.679688 230.871094 L 279.679688 199.128906 C 279.679688 199.015625 279.625 198.910156 279.535156 198.84375 C 279.441406 198.773438 279.324219 198.753906 279.214844 198.785156 Z M 278.957031 228.605469 L 267.765625 231.882812 L 267.765625 206.664062 L 278.957031 203.386719 Z M 267.765625 202.886719 L 278.957031 199.613281 L 278.957031 202.636719 L 267.765625 205.910156 Z M 278.957031 230.601562 L 267.765625 233.890625 L 267.765625 232.636719 L 278.957031 229.359375 Z M 261.117188 204.121094 L 249.203125 207.605469 C 249.046875 207.652344 248.941406 207.792969 248.941406 207.953125 L 248.941406 239.707031 C 248.941406 239.820312 248.996094 239.929688 249.085938 239.996094 C 249.152344 240.042969 249.226562 240.066406 249.304688 240.066406 C 249.335938 240.066406 249.371094 240.0625 249.40625 240.054688 L 261.320312 236.554688 C 261.472656 236.507812 261.578125 236.367188 261.578125 236.207031 L 261.578125 204.464844 C 261.578125 204.351562 261.523438 204.246094 261.433594 204.175781 C 261.34375 204.109375 261.226562 204.089844 261.117188 204.121094 Z M 260.855469 233.941406 L 249.664062 237.21875 L 249.664062 211.996094 L 260.855469 208.722656 Z M 249.664062 208.222656 L 260.855469 204.949219 L 260.855469 207.96875 L 249.664062 211.246094 Z M 260.855469 235.9375 L 249.664062 239.226562 L 249.664062 237.96875 L 260.855469 234.695312 Z M 243.015625 209.453125 L 231.101562 212.941406 C 230.949219 212.988281 230.84375 213.128906 230.84375 213.289062 L 230.84375 245.042969 C 230.84375 245.15625 230.898438 245.261719 230.988281 245.332031 C 231.050781 245.378906 231.125 245.402344 231.203125 245.402344 C 231.238281 245.402344 231.273438 245.398438 231.304688 245.386719 L 243.21875 241.886719 C 243.371094 241.84375 243.476562 241.703125 243.476562 241.542969 L 243.476562 209.800781 C 243.476562 209.6875 243.425781 209.582031 243.332031 209.511719 C 243.242188 209.445312 243.125 209.421875 243.015625 209.453125 Z M 242.757812 239.277344 L 231.566406 242.554688 L 231.566406 217.332031 L 242.757812 214.058594 Z M 231.566406 213.558594 L 242.757812 210.28125 L 242.757812 213.304688 L 231.566406 216.582031 Z M 242.757812 241.273438 L 231.566406 244.558594 L 231.566406 243.304688 L 242.757812 240.03125 Z M 279.214844 239.152344 L 267.300781 242.640625 C 267.148438 242.683594 267.042969 242.824219 267.042969 242.984375 L 267.042969 274.738281 C 267.042969 274.851562 267.097656 274.960938 267.1875 275.027344 C 267.25 275.074219 267.328125 275.101562 267.402344 275.101562 C 267.4375 275.101562 267.472656 275.09375 267.503906 275.085938 L 279.417969 271.585938 C 279.574219 271.539062 279.679688 271.398438 279.679688 271.238281 L 279.679688 239.5 C 279.679688 239.382812 279.625 239.277344 279.535156 239.210938 C 279.441406 239.140625 279.324219 239.121094 279.214844 239.152344 Z M 278.957031 260.0625 L 278.957031 268.015625 L 267.765625 271.292969 L 267.765625 247.019531 L 278.957031 243.742188 Z M 267.765625 272.046875 L 278.957031 268.769531 L 278.957031 270.96875 L 267.765625 274.257812 Z M 267.765625 243.253906 L 278.957031 239.980469 L 278.957031 242.992188 L 267.765625 246.265625 Z M 261.117188 244.488281 L 249.203125 247.972656 C 249.046875 248.019531 248.941406 248.160156 248.941406 248.320312 L 248.941406 280.074219 C 248.941406 280.1875 248.996094 280.296875 249.085938 280.363281 C 249.152344 280.410156 249.226562 280.4375 249.304688 280.4375 C 249.335938 280.4375 249.371094 280.429688 249.40625 280.421875 L 261.320312 276.921875 C 261.472656 276.875 261.578125 276.734375 261.578125 276.574219 L 261.578125 244.832031 C 261.578125 244.71875 261.523438 244.613281 261.433594 244.542969 C 261.34375 244.476562 261.226562 244.457031 261.117188 244.488281 Z M 260.855469 265.378906 L 260.855469 273.351562 L 249.664062 276.628906 L 249.664062 252.355469 L 260.855469 249.078125 Z M 260.855469 276.304688 L 249.664062 279.59375 L 249.664062 277.378906 L 260.855469 274.105469 Z M 249.664062 248.589844 L 260.855469 245.316406 L 260.855469 248.324219 L 249.664062 251.601562 Z M 243.015625 249.820312 L 231.101562 253.308594 C 230.949219 253.355469 230.84375 253.496094 230.84375 253.65625 L 230.84375 285.410156 C 230.84375 285.523438 230.898438 285.628906 230.988281 285.699219 C 231.050781 285.746094 231.125 285.769531 231.203125 285.769531 C 231.238281 285.769531 231.273438 285.765625 231.304688 285.757812 L 243.21875 282.257812 C 243.371094 282.210938 243.476562 282.070312 243.476562 281.910156 L 243.476562 250.167969 C 243.476562 250.054688 243.425781 249.949219 243.332031 249.878906 C 243.242188 249.8125 243.125 249.789062 243.015625 249.820312 Z M 242.757812 270.699219 L 242.757812 278.6875 L 231.566406 281.964844 L 231.566406 257.6875 L 242.757812 254.414062 Z M 242.757812 281.640625 L 231.566406 284.929688 L 231.566406 282.714844 L 242.757812 279.441406 Z M 231.566406 253.925781 L 242.757812 250.648438 L 242.757812 253.660156 L 231.566406 256.9375 Z M 159.554688 154.398438 L 171.46875 157.898438 C 171.503906 157.90625 171.539062 157.914062 171.570312 157.914062 C 171.648438 157.914062 171.722656 157.886719 171.789062 157.839844 C 171.878906 157.773438 171.933594 157.664062 171.933594 157.550781 L 171.933594 120.308594 C 171.933594 120.148438 171.828125 120.007812 171.671875 119.960938 L 159.757812 116.472656 C 159.648438 116.441406 159.53125 116.464844 159.441406 116.53125 C 159.351562 116.601562 159.296875 116.707031 159.296875 116.820312 L 159.296875 154.050781 C 159.296875 154.210938 159.402344 154.351562 159.554688 154.398438 Z M 160.019531 133.191406 L 160.019531 119.90625 L 171.210938 123.183594 L 171.210938 154.464844 L 160.019531 151.1875 Z M 171.210938 122.429688 L 160.019531 119.15625 L 160.019531 117.300781 L 171.210938 120.578125 Z M 160.019531 151.941406 L 171.210938 155.214844 L 171.210938 157.070312 L 160.019531 153.78125 Z M 177.65625 159.734375 L 189.570312 163.234375 C 189.601562 163.242188 189.636719 163.246094 189.671875 163.246094 C 189.75 163.246094 189.824219 163.222656 189.886719 163.175781 C 189.976562 163.105469 190.03125 163 190.03125 162.886719 L 190.03125 125.644531 C 190.03125 125.484375 189.925781 125.339844 189.773438 125.296875 L 177.859375 121.808594 C 177.75 121.777344 177.632812 121.800781 177.542969 121.867188 C 177.449219 121.933594 177.398438 122.042969 177.398438 122.15625 L 177.398438 159.386719 C 177.398438 159.546875 177.503906 159.6875 177.65625 159.734375 Z M 178.117188 138.476562 L 178.117188 125.242188 L 189.308594 128.519531 L 189.308594 159.800781 L 178.117188 156.523438 Z M 189.308594 127.765625 L 178.117188 124.492188 L 178.117188 122.636719 L 189.308594 125.914062 Z M 178.117188 157.277344 L 189.308594 160.550781 L 189.308594 162.40625 L 178.117188 159.117188 Z M 195.757812 165.066406 L 207.667969 168.566406 C 207.703125 168.578125 207.738281 168.582031 207.769531 168.582031 C 207.847656 168.582031 207.925781 168.558594 207.988281 168.511719 C 208.078125 168.441406 208.132812 168.335938 208.132812 168.222656 L 208.132812 130.976562 C 208.132812 130.816406 208.027344 130.675781 207.871094 130.632812 L 195.957031 127.144531 C 195.851562 127.113281 195.730469 127.132812 195.640625 127.203125 C 195.550781 127.269531 195.496094 127.378906 195.496094 127.492188 L 195.496094 164.722656 C 195.496094 164.882812 195.601562 165.023438 195.757812 165.066406 Z M 196.21875 143.761719 L 196.21875 130.578125 L 207.410156 133.855469 L 207.410156 165.136719 L 196.21875 161.859375 Z M 207.410156 133.101562 L 196.21875 129.824219 L 196.21875 127.972656 L 207.410156 131.25 Z M 196.21875 162.613281 L 207.410156 165.886719 L 207.410156 167.738281 L 196.21875 164.453125 Z M 118.410156 218.558594 L 97.335938 224.75 C 97.183594 224.792969 97.078125 224.933594 97.078125 225.09375 L 97.078125 235.664062 C 97.078125 235.777344 97.132812 235.886719 97.222656 235.953125 C 97.285156 236 97.363281 236.023438 97.4375 236.023438 C 97.472656 236.023438 97.507812 236.019531 97.542969 236.011719 L 118.617188 229.769531 C 118.769531 229.722656 118.875 229.582031 118.875 229.421875 L 118.875 218.90625 C 118.875 218.792969 118.820312 218.6875 118.730469 218.617188 C 118.636719 218.550781 118.519531 218.527344 118.410156 218.558594 Z M 118.152344 229.152344 L 97.800781 235.179688 L 97.800781 225.363281 L 118.152344 219.390625 Z M 118.410156 204.859375 L 97.335938 211.046875 C 97.183594 211.09375 97.078125 211.234375 97.078125 211.394531 L 97.078125 221.964844 C 97.078125 222.078125 97.132812 222.183594 97.222656 222.253906 C 97.285156 222.300781 97.363281 222.324219 97.4375 222.324219 C 97.472656 222.324219 97.507812 222.320312 97.542969 222.308594 L 118.511719 216.097656 L 118.617188 216.066406 C 118.734375 216.03125 118.824219 215.9375 118.855469 215.824219 C 118.867188 215.792969 118.875 215.757812 118.875 215.722656 L 118.875 205.207031 C 118.875 205.09375 118.820312 204.984375 118.730469 204.917969 C 118.636719 204.847656 118.519531 204.828125 118.410156 204.859375 Z M 118.152344 215.238281 L 118.152344 215.453125 L 117.875 215.535156 L 117.242188 215.722656 L 97.800781 221.480469 L 97.800781 211.664062 L 118.152344 205.6875 Z M 118.410156 191.160156 L 97.335938 197.347656 C 97.183594 197.394531 97.078125 197.535156 97.078125 197.695312 L 97.078125 208.265625 C 97.078125 208.378906 97.132812 208.484375 97.222656 208.554688 C 97.285156 208.601562 97.363281 208.625 97.4375 208.625 C 97.472656 208.625 97.507812 208.621094 97.542969 208.609375 L 118.617188 202.367188 C 118.769531 202.320312 118.875 202.179688 118.875 202.019531 L 118.875 191.507812 C 118.875 191.390625 118.820312 191.285156 118.730469 191.21875 C 118.636719 191.148438 118.519531 191.128906 118.410156 191.160156 Z M 118.152344 201.753906 L 97.800781 207.78125 L 97.800781 197.964844 L 118.152344 191.988281 Z M 118.410156 177.460938 L 97.335938 183.648438 C 97.183594 183.691406 97.078125 183.832031 97.078125 183.992188 L 97.078125 194.5625 C 97.078125 194.675781 97.132812 194.785156 97.222656 194.851562 C 97.285156 194.898438 97.363281 194.925781 97.4375 194.925781 C 97.472656 194.925781 97.507812 194.917969 97.542969 194.910156 L 118.617188 188.667969 C 118.769531 188.621094 118.875 188.480469 118.875 188.320312 L 118.875 177.804688 C 118.875 177.691406 118.820312 177.585938 118.730469 177.515625 C 118.636719 177.449219 118.519531 177.425781 118.410156 177.460938 Z M 118.152344 188.050781 L 97.800781 194.082031 L 97.800781 184.265625 L 118.152344 178.289062 Z M 107.203125 253.089844 L 107.203125 254.902344 C 107.203125 255.101562 107.042969 255.261719 106.84375 255.261719 C 106.644531 255.261719 106.484375 255.101562 106.484375 254.902344 L 106.484375 253.089844 C 106.484375 252.890625 106.644531 252.726562 106.84375 252.726562 C 107.042969 252.726562 107.203125 252.890625 107.203125 253.089844 Z M 109.460938 252.179688 L 109.460938 253.996094 C 109.460938 254.195312 109.296875 254.355469 109.097656 254.355469 C 108.898438 254.355469 108.738281 254.195312 108.738281 253.996094 L 108.738281 252.179688 C 108.738281 251.980469 108.898438 251.820312 109.097656 251.820312 C 109.296875 251.820312 109.460938 251.980469 109.460938 252.179688 Z M 118.859375 243.046875 C 118.914062 243.238281 118.804688 243.4375 118.613281 243.492188 L 103.320312 247.984375 L 102.039062 248.359375 L 97.539062 249.679688 C 97.507812 249.691406 97.472656 249.695312 97.4375 249.695312 C 97.28125 249.695312 97.140625 249.59375 97.09375 249.4375 C 97.035156 249.246094 97.144531 249.046875 97.335938 248.988281 L 100.761719 247.984375 L 101.398438 247.796875 L 102.039062 247.609375 L 118.410156 242.800781 C 118.601562 242.746094 118.804688 242.855469 118.859375 243.046875 Z M 340.746094 118.273438 L 327.148438 122.253906 C 326.996094 122.300781 326.890625 122.441406 326.890625 122.601562 L 326.890625 195.066406 C 326.890625 195.183594 326.941406 195.289062 327.035156 195.355469 C 327.097656 195.402344 327.171875 195.429688 327.25 195.429688 C 327.285156 195.429688 327.316406 195.425781 327.351562 195.414062 L 340.949219 191.417969 C 341.101562 191.375 341.207031 191.234375 341.207031 191.074219 L 341.207031 118.621094 C 341.207031 118.507812 341.152344 118.398438 341.0625 118.332031 C 340.972656 118.265625 340.855469 118.242188 340.746094 118.273438 Z M 340.484375 186.410156 L 327.609375 190.175781 L 327.609375 163.210938 L 340.484375 159.441406 Z M 327.609375 126.109375 L 340.484375 122.339844 L 340.484375 158.6875 L 327.609375 162.457031 Z M 327.609375 122.871094 L 340.484375 119.101562 L 340.484375 121.585938 L 327.609375 125.355469 Z M 340.484375 190.804688 L 327.609375 194.585938 L 327.609375 190.929688 L 340.484375 187.160156 Z M 320.089844 124.363281 L 306.492188 128.34375 C 306.335938 128.386719 306.230469 128.527344 306.230469 128.691406 L 306.230469 131.714844 C 306.152344 131.804688 306.113281 131.925781 306.152344 132.050781 C 306.167969 132.105469 306.195312 132.148438 306.230469 132.1875 L 306.230469 168.816406 C 306.152344 168.90625 306.113281 169.027344 306.152344 169.152344 C 306.167969 169.207031 306.195312 169.25 306.230469 169.289062 L 306.230469 196.535156 C 306.152344 196.625 306.113281 196.75 306.152344 196.871094 C 306.167969 196.925781 306.195312 196.96875 306.230469 197.007812 L 306.230469 201.15625 C 306.230469 201.269531 306.285156 201.378906 306.375 201.445312 C 306.4375 201.492188 306.515625 201.519531 306.59375 201.519531 C 306.625 201.519531 306.660156 201.511719 306.695312 201.503906 L 320.289062 197.507812 C 320.445312 197.464844 320.550781 197.324219 320.550781 197.164062 L 320.550781 124.710938 C 320.550781 124.597656 320.496094 124.488281 320.40625 124.421875 C 320.316406 124.351562 320.195312 124.332031 320.089844 124.363281 Z M 319.828125 192.492188 L 306.953125 196.261719 L 306.953125 169.292969 L 319.828125 165.523438 Z M 306.953125 132.191406 L 319.828125 128.421875 L 319.828125 164.773438 L 306.953125 168.542969 Z M 306.953125 128.960938 L 319.828125 125.191406 L 319.828125 127.671875 L 306.953125 131.4375 Z M 319.828125 196.890625 L 306.953125 200.675781 L 306.953125 197.011719 L 319.828125 193.246094 Z M 340.746094 198.835938 L 327.148438 202.816406 C 326.996094 202.863281 326.890625 203.003906 326.890625 203.164062 L 326.890625 239.402344 C 326.890625 239.519531 326.941406 239.625 327.035156 239.691406 C 327.097656 239.738281 327.171875 239.765625 327.25 239.765625 C 327.285156 239.765625 327.316406 239.761719 327.351562 239.75 L 340.949219 235.753906 C 341.101562 235.710938 341.207031 235.570312 341.207031 235.410156 L 341.207031 199.183594 C 341.207031 199.070312 341.152344 198.960938 341.0625 198.894531 C 340.972656 198.824219 340.855469 198.804688 340.746094 198.835938 Z M 340.484375 234.117188 L 340.484375 235.140625 L 327.609375 238.921875 L 327.609375 235.46875 L 335.082031 233.28125 L 336.363281 232.90625 L 340.484375 231.699219 Z M 327.609375 231.085938 L 327.609375 207.59375 L 340.484375 203.824219 L 340.484375 230.949219 L 335.082031 232.53125 L 333.800781 232.90625 L 327.609375 234.714844 Z M 327.609375 203.433594 L 340.484375 199.664062 L 340.484375 203.074219 L 327.609375 206.839844 Z M 320.089844 204.925781 L 306.492188 208.90625 C 306.335938 208.949219 306.230469 209.089844 306.230469 209.25 L 306.230469 213.199219 C 306.152344 213.289062 306.113281 213.414062 306.152344 213.535156 C 306.167969 213.589844 306.195312 213.632812 306.230469 213.671875 L 306.230469 241.074219 C 306.152344 241.164062 306.113281 241.289062 306.152344 241.410156 C 306.167969 241.464844 306.195312 241.507812 306.230469 241.546875 L 306.230469 245.492188 C 306.230469 245.605469 306.285156 245.714844 306.375 245.78125 C 306.4375 245.828125 306.515625 245.855469 306.59375 245.855469 C 306.625 245.855469 306.660156 245.847656 306.695312 245.839844 L 320.289062 241.84375 C 320.445312 241.800781 320.550781 241.660156 320.550781 241.5 L 320.550781 205.273438 C 320.550781 205.160156 320.496094 205.050781 320.40625 204.984375 C 320.316406 204.914062 320.195312 204.894531 320.089844 204.925781 Z M 319.828125 228.050781 L 319.828125 237.03125 L 306.953125 240.800781 L 306.953125 213.675781 L 319.828125 209.910156 Z M 319.828125 241.226562 L 306.953125 245.011719 L 306.953125 241.550781 L 319.828125 237.785156 Z M 306.953125 209.523438 L 319.828125 205.753906 L 319.828125 209.15625 L 306.953125 212.925781 Z M 86.953125 151.46875 C 86.90625 151.625 86.976562 151.785156 87.109375 151.867188 L 87.109375 154.351562 C 87.109375 154.511719 87.214844 154.652344 87.367188 154.699219 L 101.410156 158.824219 C 101.441406 158.832031 101.476562 158.839844 101.511719 158.839844 C 101.585938 158.839844 101.664062 158.8125 101.726562 158.765625 C 101.816406 158.699219 101.871094 158.589844 101.871094 158.476562 L 101.871094 121.054688 C 101.871094 120.894531 101.765625 120.753906 101.613281 120.707031 L 87.570312 116.597656 C 87.460938 116.566406 87.34375 116.585938 87.253906 116.65625 C 87.164062 116.722656 87.109375 116.832031 87.109375 116.945312 L 87.109375 122.714844 C 87.039062 122.761719 86.980469 122.828125 86.953125 122.917969 C 86.90625 123.074219 86.976562 123.234375 87.109375 123.316406 L 87.109375 151.265625 C 87.039062 151.3125 86.980469 151.378906 86.953125 151.46875 Z M 87.832031 152.101562 L 101.148438 156 L 101.148438 157.996094 L 87.832031 154.082031 Z M 87.832031 117.425781 L 101.148438 121.324219 L 101.148438 126.695312 L 87.832031 122.796875 Z M 101.148438 127.445312 L 101.148438 155.246094 L 87.832031 151.347656 L 87.832031 123.550781 Z M 108.347656 157.773438 C 108.3125 157.902344 108.351562 158.035156 108.441406 158.125 L 108.441406 160.640625 C 108.441406 160.800781 108.546875 160.941406 108.699219 160.984375 L 122.738281 165.109375 C 122.773438 165.121094 122.808594 165.125 122.839844 165.125 C 122.917969 165.125 122.996094 165.101562 123.058594 165.054688 C 123.148438 164.984375 123.203125 164.878906 123.203125 164.765625 L 123.203125 127.339844 C 123.203125 127.179688 123.097656 127.039062 122.941406 126.996094 L 108.902344 122.886719 C 108.792969 122.855469 108.675781 122.875 108.585938 122.945312 C 108.492188 123.011719 108.441406 123.117188 108.441406 123.230469 L 108.441406 129.074219 C 108.398438 129.117188 108.367188 129.164062 108.347656 129.222656 C 108.3125 129.351562 108.351562 129.480469 108.441406 129.570312 L 108.441406 157.625 C 108.398438 157.667969 108.367188 157.714844 108.347656 157.773438 Z M 109.160156 158.386719 L 122.480469 162.285156 L 122.480469 164.28125 L 109.160156 160.371094 Z M 109.160156 123.714844 L 122.480469 127.613281 L 122.480469 132.984375 L 109.160156 129.085938 Z M 122.480469 133.734375 L 122.480469 161.535156 L 109.160156 157.636719 L 109.160156 129.835938 Z M 129.742188 164.082031 C 129.714844 164.175781 129.730469 164.269531 129.773438 164.347656 L 129.773438 166.925781 C 129.773438 167.085938 129.878906 167.226562 130.03125 167.273438 L 144.070312 171.398438 C 144.105469 171.410156 144.136719 171.414062 144.171875 171.414062 C 144.25 171.414062 144.324219 171.386719 144.390625 171.339844 C 144.480469 171.273438 144.535156 171.167969 144.535156 171.050781 L 144.535156 133.628906 C 144.535156 133.46875 144.425781 133.328125 144.273438 133.28125 L 130.234375 129.171875 C 130.125 129.140625 130.007812 129.164062 129.914062 129.230469 C 129.824219 129.300781 129.773438 129.40625 129.773438 129.519531 L 129.773438 135.476562 C 129.761719 135.496094 129.75 135.507812 129.742188 135.53125 C 129.714844 135.621094 129.730469 135.71875 129.773438 135.796875 L 129.773438 164.027344 C 129.761719 164.046875 129.75 164.0625 129.742188 164.082031 Z M 130.492188 164.675781 L 143.8125 168.574219 L 143.8125 170.570312 L 130.492188 166.65625 Z M 143.8125 139.269531 L 130.492188 135.371094 L 130.492188 130 L 143.8125 133.898438 Z M 143.8125 140.023438 L 143.8125 167.820312 L 130.492188 163.925781 L 130.492188 136.125 Z M 50.667969 174.132812 L 38.753906 170.648438 C 38.644531 170.613281 38.527344 170.636719 38.4375 170.703125 C 38.34375 170.773438 38.292969 170.878906 38.292969 170.992188 L 38.292969 202.734375 C 38.292969 202.894531 38.398438 203.035156 38.550781 203.082031 L 50.464844 206.582031 C 50.496094 206.589844 50.53125 206.59375 50.566406 206.59375 C 50.644531 206.59375 50.71875 206.570312 50.78125 206.523438 C 50.875 206.457031 50.925781 206.347656 50.925781 206.234375 L 50.925781 174.480469 C 50.925781 174.320312 50.820312 174.179688 50.667969 174.132812 Z M 50.207031 205.753906 L 39.011719 202.464844 L 39.011719 171.476562 L 50.207031 174.75 Z M 68.765625 179.46875 L 56.855469 175.980469 C 56.746094 175.949219 56.628906 175.972656 56.535156 176.039062 C 56.445312 176.109375 56.390625 176.214844 56.390625 176.328125 L 56.390625 208.070312 C 56.390625 208.230469 56.496094 208.371094 56.652344 208.414062 L 68.566406 211.917969 C 68.597656 211.925781 68.632812 211.929688 68.667969 211.929688 C 68.742188 211.929688 68.820312 211.90625 68.882812 211.859375 C 68.972656 211.789062 69.027344 211.683594 69.027344 211.570312 L 69.027344 179.816406 C 69.027344 179.65625 68.921875 179.515625 68.765625 179.46875 Z M 68.304688 211.089844 L 57.113281 207.800781 L 57.113281 176.808594 L 68.304688 180.085938 Z M 86.867188 184.804688 L 77.703125 182.121094 L 76.984375 181.910156 L 74.953125 181.316406 C 74.84375 181.285156 74.726562 181.308594 74.636719 181.375 C 74.546875 181.441406 74.492188 181.550781 74.492188 181.664062 L 74.492188 213.40625 C 74.492188 213.566406 74.597656 213.707031 74.75 213.75 L 76.984375 214.40625 L 77.703125 214.617188 L 86.664062 217.25 C 86.699219 217.261719 86.730469 217.265625 86.765625 217.265625 C 86.84375 217.265625 86.917969 217.242188 86.980469 217.195312 C 87.074219 217.125 87.125 217.019531 87.125 216.90625 L 87.125 185.152344 C 87.125 184.992188 87.019531 184.847656 86.867188 184.804688 Z M 86.40625 216.421875 L 77.703125 213.867188 L 76.984375 213.65625 L 75.214844 213.136719 L 75.214844 182.144531 L 76.984375 182.664062 L 77.703125 182.875 L 86.40625 185.421875 Z M 50.667969 214.5 L 38.753906 211.015625 C 38.644531 210.984375 38.527344 211.003906 38.4375 211.074219 C 38.34375 211.140625 38.292969 211.246094 38.292969 211.359375 L 38.292969 243.101562 C 38.292969 243.261719 38.398438 243.402344 38.550781 243.449219 L 50.464844 246.949219 C 50.496094 246.957031 50.53125 246.964844 50.566406 246.964844 C 50.644531 246.964844 50.71875 246.9375 50.78125 246.890625 C 50.875 246.824219 50.925781 246.714844 50.925781 246.601562 L 50.925781 214.847656 C 50.925781 214.6875 50.820312 214.546875 50.667969 214.5 Z M 50.207031 232.113281 L 50.207031 246.121094 L 39.011719 242.832031 L 39.011719 211.84375 L 50.207031 215.117188 Z M 68.765625 219.835938 L 56.855469 216.351562 C 56.746094 216.316406 56.628906 216.339844 56.535156 216.40625 C 56.445312 216.476562 56.390625 216.582031 56.390625 216.695312 L 56.390625 248.4375 C 56.390625 248.597656 56.496094 248.738281 56.652344 248.785156 L 68.566406 252.285156 C 68.597656 252.292969 68.632812 252.296875 68.667969 252.296875 C 68.742188 252.296875 68.820312 252.273438 68.882812 252.226562 C 68.972656 252.160156 69.027344 252.050781 69.027344 251.9375 L 69.027344 220.183594 C 69.027344 220.023438 68.921875 219.882812 68.765625 219.835938 Z M 68.304688 226.789062 L 68.304688 251.457031 L 57.113281 248.167969 L 57.113281 217.175781 L 68.304688 220.453125 Z M 86.867188 225.171875 L 81.597656 223.628906 L 80.316406 223.253906 L 77.703125 222.488281 L 76.984375 222.277344 L 74.953125 221.683594 C 74.84375 221.652344 74.726562 221.675781 74.636719 221.742188 C 74.546875 221.8125 74.492188 221.917969 74.492188 222.03125 L 74.492188 253.773438 C 74.492188 253.933594 74.597656 254.074219 74.75 254.117188 L 86.664062 257.617188 C 86.699219 257.628906 86.730469 257.632812 86.765625 257.632812 C 86.84375 257.632812 86.917969 257.609375 86.980469 257.5625 C 87.074219 257.492188 87.125 257.386719 87.125 257.273438 L 87.125 225.519531 C 87.125 225.359375 87.019531 225.21875 86.867188 225.171875 Z M 86.40625 243.015625 L 86.40625 256.789062 L 75.214844 253.503906 L 75.214844 222.511719 L 76.984375 223.03125 L 77.703125 223.242188 L 79.035156 223.632812 L 80.316406 224.007812 L 86.40625 225.789062 Z M 86.40625 243.015625 "/></g></g></svg>