<svg xmlns="http://www.w3.org/2000/svg" xmlns:xlink="http://www.w3.org/1999/xlink" width="500" zoomAndPan="magnify" viewBox="0 0 375 374.999991" height="500" preserveAspectRatio="xMidYMid meet" version="1.2"><defs><clipPath id="07e2934560"><path d="M 58 49.644531 L 352 49.644531 L 352 248 L 58 248 Z M 58 49.644531 "/></clipPath><clipPath id="8ff197bd4a"><path d="M 12.164062 314 L 25 314 L 25 325.644531 L 12.164062 325.644531 Z M 12.164062 314 "/></clipPath><clipPath id="f9b4971bf6"><path d="M 249 165 L 363.164062 165 L 363.164062 237 L 249 237 Z M 249 165 "/></clipPath></defs><g id="2d0526bc08"><path style=" stroke:none;fill-rule:nonzero;fill:#77abd5;fill-opacity:1;" d="M 172.210938 240.410156 L 255.332031 240.410156 L 270.441406 281.40625 C 270.527344 281.640625 270.601562 281.882812 270.65625 282.125 C 270.714844 282.371094 270.757812 282.617188 270.789062 282.867188 C 270.816406 283.117188 270.828125 283.367188 270.828125 283.617188 C 270.824219 283.871094 270.808594 284.121094 270.777344 284.367188 C 270.742188 284.617188 270.695312 284.863281 270.636719 285.105469 C 270.574219 285.351562 270.496094 285.589844 270.40625 285.824219 C 270.316406 286.058594 270.210938 286.285156 270.09375 286.507812 C 269.976562 286.730469 269.847656 286.945312 269.703125 287.148438 C 269.558594 287.355469 269.402344 287.550781 269.238281 287.738281 C 269.070312 287.925781 268.890625 288.101562 268.703125 288.269531 C 268.515625 288.433594 268.316406 288.589844 268.109375 288.730469 C 267.902344 288.871094 267.6875 289.003906 267.464844 289.117188 C 267.242188 289.234375 267.011719 289.335938 266.777344 289.425781 C 266.542969 289.515625 266.304688 289.589844 266.058594 289.648438 C 265.816406 289.707031 265.570312 289.753906 265.320312 289.78125 C 265.070312 289.8125 264.820312 289.828125 264.570312 289.828125 L 162.96875 289.828125 C 162.71875 289.828125 162.46875 289.8125 162.21875 289.78125 C 161.96875 289.753906 161.722656 289.707031 161.480469 289.648438 C 161.234375 289.589844 160.996094 289.515625 160.761719 289.425781 C 160.527344 289.335938 160.296875 289.234375 160.074219 289.117188 C 159.851562 289.003906 159.636719 288.871094 159.429688 288.730469 C 159.222656 288.589844 159.027344 288.433594 158.835938 288.269531 C 158.648438 288.101562 158.472656 287.925781 158.304688 287.738281 C 158.136719 287.550781 157.980469 287.355469 157.835938 287.148438 C 157.695312 286.945312 157.5625 286.730469 157.445312 286.507812 C 157.328125 286.285156 157.222656 286.058594 157.132812 285.824219 C 157.042969 285.589844 156.964844 285.351562 156.90625 285.105469 C 156.84375 284.863281 156.796875 284.617188 156.765625 284.367188 C 156.730469 284.121094 156.714844 283.871094 156.714844 283.617188 C 156.710938 283.367188 156.726562 283.117188 156.753906 282.867188 C 156.78125 282.617188 156.824219 282.371094 156.882812 282.125 C 156.941406 281.882812 157.011719 281.640625 157.097656 281.40625 Z M 172.210938 240.410156 "/><path style=" stroke:none;fill-rule:nonzero;fill:#1c3144;fill-opacity:1;" d="M 172.210938 240.410156 L 163.558594 263.882812 C 168.019531 263.3125 217.730469 256.980469 259.582031 251.949219 L 255.332031 240.410156 Z M 172.210938 240.410156 "/><g clip-rule="nonzero" clip-path="url(#07e2934560)"><path style=" stroke:none;fill-rule:nonzero;fill:#77abd5;fill-opacity:1;" d="M 73.523438 49.644531 L 335.804688 49.644531 C 344.242188 49.644531 351.035156 56.4375 351.035156 64.878906 L 351.035156 231.796875 C 351.035156 240.238281 344.242188 247.035156 335.804688 247.035156 L 73.523438 247.035156 C 65.082031 247.035156 58.289062 240.238281 58.289062 231.796875 L 58.289062 64.878906 C 58.289062 56.4375 65.082031 49.644531 73.523438 49.644531 Z M 73.523438 49.644531 "/></g><path style=" stroke:none;fill-rule:nonzero;fill:#f9f9f9;fill-opacity:1;" d="M 69.734375 60.386719 L 339.589844 60.386719 L 339.589844 231.605469 L 69.734375 231.605469 Z M 69.734375 60.386719 "/><path style=" stroke:none;fill-rule:nonzero;fill:#c4c4c4;fill-opacity:1;" d="M 93.828125 208.960938 C 93.578125 208.960938 93.363281 209.050781 93.1875 209.226562 C 93.007812 209.40625 92.917969 209.621094 92.917969 209.871094 C 92.917969 210.125 93.007812 210.339844 93.1875 210.515625 C 93.363281 210.695312 93.578125 210.78125 93.828125 210.78125 L 241.351562 210.78125 C 241.601562 210.78125 241.816406 210.695312 241.992188 210.515625 C 242.171875 210.339844 242.261719 210.125 242.261719 209.871094 C 242.261719 209.621094 242.171875 209.40625 241.996094 209.226562 C 241.816406 209.050781 241.601562 208.960938 241.351562 208.960938 Z M 93.828125 208.960938 "/><path style=" stroke:none;fill-rule:nonzero;fill:#3f88c5;fill-opacity:1;" d="M 100.738281 134.277344 L 119.703125 134.277344 L 119.703125 203.828125 L 100.738281 203.828125 Z M 100.738281 134.277344 "/><path style=" stroke:none;fill-rule:nonzero;fill:#ffab00;fill-opacity:1;" d="M 138.984375 114.257812 L 157.949219 114.257812 L 157.949219 203.828125 L 138.984375 203.828125 Z M 138.984375 114.257812 "/><path style=" stroke:none;fill-rule:nonzero;fill:#3f88c5;fill-opacity:1;" d="M 177.230469 97.925781 L 196.195312 97.925781 L 196.195312 203.828125 L 177.230469 203.828125 Z M 177.230469 97.925781 "/><path style=" stroke:none;fill-rule:nonzero;fill:#ffab00;fill-opacity:1;" d="M 215.476562 90.019531 L 234.441406 90.019531 L 234.441406 203.828125 L 215.476562 203.828125 Z M 215.476562 90.019531 "/><path style=" stroke:none;fill-rule:nonzero;fill:#f5987c;fill-opacity:1;" d="M 108.015625 164.152344 C 107.753906 164.453125 104.046875 168.316406 103.304688 169.066406 C 102.675781 169.703125 102.191406 169.578125 102.296875 169.230469 C 102.402344 168.878906 102.53125 167.585938 102.09375 166.835938 C 101.785156 166.3125 101.425781 166.3125 101.242188 166.363281 C 101.167969 166.378906 101.101562 166.46875 101.089844 166.542969 C 100.324219 170.585938 98.625 171.835938 98.1875 173.792969 C 98.15625 173.929688 98.136719 174.066406 98.125 174.199219 L 95.242188 175.195312 L 100.160156 182.429688 L 102.117188 178.523438 C 104.816406 178.441406 107.949219 175.5625 108.230469 175.386719 C 108.820312 175.015625 111.007812 172.871094 111.507812 172.402344 C 111.714844 172.207031 111.8125 171.976562 111.75 171.75 C 111.691406 171.515625 111.476562 171.269531 111.125 171.328125 C 110.773438 171.386719 108.769531 173.390625 108.402344 173.347656 C 108.035156 173.308594 108.117188 173.058594 108.3125 172.875 C 108.507812 172.691406 111.910156 169.429688 112.074219 169.273438 C 112.75 168.640625 112.742188 168.15625 112.449219 167.882812 C 112.210938 167.660156 111.765625 167.667969 111.359375 168.042969 C 110.300781 169.019531 107.851562 171.296875 107.453125 171.359375 C 107 171.429688 106.929688 171.132812 107.066406 170.945312 C 107.367188 170.535156 110.753906 166.980469 111.515625 166.199219 C 111.957031 165.746094 111.734375 165.382812 111.519531 165.125 C 111.246094 164.792969 110.832031 164.972656 110.5 165.210938 C 110.171875 165.449219 107.085938 168.53125 106.410156 169.027344 C 105.734375 169.527344 105.609375 169.679688 105.539062 169.378906 C 105.46875 169.078125 108.902344 165.421875 109.136719 164.96875 C 109.371094 164.519531 109.40625 164.152344 109 163.867188 C 108.644531 163.652344 108.324219 163.835938 108.015625 164.152344 Z M 108.015625 164.152344 "/><path style=" stroke:none;fill-rule:nonzero;fill:#3f88c5;fill-opacity:1;" d="M 43.117188 164.722656 C 45.332031 164.578125 47.523438 165.234375 49.289062 166.574219 C 49.769531 166.945312 50.207031 167.363281 50.605469 167.820312 L 71.777344 187.894531 L 94.949219 173.808594 C 95.25 173.710938 96.585938 172.125 99.128906 175.324219 C 101.671875 178.523438 100.574219 180.328125 100.042969 180.898438 L 75.953125 199.933594 C 73.644531 202.117188 70.269531 203.246094 66.839844 201.210938 L 38.15625 181.277344 C 34.097656 178.203125 33.300781 172.417969 36.375 168.359375 C 37.988281 166.226562 40.449219 164.902344 43.117188 164.722656 Z M 43.117188 164.722656 "/><path style=" stroke:none;fill-rule:nonzero;fill:#2e5171;fill-opacity:1;" d="M 116.851562 158.003906 L 111.195312 155.199219 L 81.09375 215.925781 L 86.75 218.730469 Z M 116.851562 158.003906 "/><path style=" stroke:none;fill-rule:nonzero;fill:#c4c4c4;fill-opacity:1;" d="M 233.914062 68.929688 L 94.40625 119.597656 C 94.167969 119.683594 93.996094 119.84375 93.890625 120.070312 C 93.785156 120.296875 93.773438 120.53125 93.859375 120.765625 C 93.945312 121.003906 94.105469 121.171875 94.332031 121.28125 C 94.558594 121.386719 94.792969 121.394531 95.027344 121.308594 L 234.539062 70.640625 C 234.773438 70.554688 234.945312 70.398438 235.050781 70.171875 C 235.160156 69.945312 235.167969 69.710938 235.082031 69.476562 C 234.996094 69.238281 234.839844 69.066406 234.613281 68.960938 C 234.382812 68.855469 234.152344 68.84375 233.917969 68.929688 Z M 233.914062 68.929688 "/><path style=" stroke:none;fill-rule:nonzero;fill:#2e5171;fill-opacity:1;" d="M 139.730469 69.546875 C 141.304688 69.753906 142.867188 70.042969 144.414062 70.40625 C 145.960938 70.769531 147.488281 71.207031 148.992188 71.71875 C 150.496094 72.234375 151.972656 72.820312 153.417969 73.476562 C 154.867188 74.136719 156.277344 74.863281 157.652344 75.660156 C 159.027344 76.457031 160.363281 77.320312 161.652344 78.246094 C 162.945312 79.175781 164.1875 80.164062 165.378906 81.214844 C 166.574219 82.265625 167.710938 83.371094 168.796875 84.53125 C 169.882812 85.695312 170.90625 86.90625 171.875 88.167969 C 172.839844 89.429688 173.742188 90.738281 174.578125 92.089844 C 175.417969 93.441406 176.1875 94.828125 176.886719 96.257812 C 177.585938 97.683594 178.21875 99.140625 178.773438 100.628906 C 179.332031 102.117188 179.816406 103.632812 180.226562 105.167969 C 180.632812 106.703125 180.96875 108.257812 181.222656 109.824219 C 181.480469 111.394531 181.660156 112.972656 181.761719 114.558594 C 181.863281 116.144531 181.886719 117.734375 181.832031 119.320312 C 181.777344 120.910156 181.644531 122.492188 181.4375 124.070312 C 181.226562 125.644531 180.941406 127.207031 180.578125 128.753906 C 180.214844 130.300781 179.777344 131.828125 179.261719 133.332031 C 178.75 134.835938 178.164062 136.3125 177.503906 137.761719 C 176.847656 139.207031 176.121094 140.617188 175.324219 141.996094 C 174.527344 143.371094 173.664062 144.703125 172.734375 145.992188 C 171.808594 147.285156 170.820312 148.527344 169.769531 149.722656 C 168.71875 150.914062 167.613281 152.054688 166.453125 153.140625 C 165.289062 154.222656 164.078125 155.25 162.816406 156.214844 C 161.554688 157.183594 160.246094 158.082031 158.894531 158.921875 C 157.542969 159.757812 156.15625 160.527344 154.730469 161.230469 C 153.300781 161.929688 151.84375 162.558594 150.355469 163.117188 C 148.867188 163.675781 147.355469 164.160156 145.820312 164.566406 C 144.28125 164.976562 142.730469 165.308594 141.160156 165.566406 C 139.59375 165.824219 138.015625 166.003906 136.429688 166.105469 C 134.84375 166.207031 133.253906 166.230469 131.667969 166.175781 C 130.078125 166.121094 128.496094 165.988281 126.917969 165.78125 C 125.34375 165.570312 123.78125 165.285156 122.234375 164.921875 C 120.6875 164.558594 119.160156 164.117188 117.65625 163.605469 C 116.152344 163.09375 114.675781 162.507812 113.230469 161.847656 C 111.78125 161.191406 110.371094 160.460938 108.996094 159.664062 C 107.621094 158.867188 106.285156 158.007812 104.996094 157.078125 C 103.707031 156.152344 102.464844 155.160156 101.269531 154.113281 C 100.074219 153.0625 98.9375 151.957031 97.851562 150.792969 C 96.765625 149.632812 95.742188 148.421875 94.773438 147.15625 C 93.808594 145.894531 92.90625 144.585938 92.070312 143.238281 C 91.234375 141.886719 90.464844 140.496094 89.761719 139.070312 C 89.0625 137.644531 88.433594 136.183594 87.875 134.695312 C 87.316406 133.207031 86.832031 131.695312 86.421875 130.160156 C 86.015625 128.621094 85.679688 127.070312 85.425781 125.5 C 85.167969 123.933594 84.988281 122.355469 84.886719 120.769531 C 84.785156 119.179688 84.761719 117.59375 84.816406 116.003906 C 84.871094 114.417969 85.003906 112.832031 85.210938 111.257812 C 85.421875 109.683594 85.707031 108.121094 86.070312 106.574219 C 86.433594 105.023438 86.875 103.5 87.386719 101.992188 C 87.898438 100.488281 88.484375 99.011719 89.144531 97.566406 C 89.800781 96.117188 90.527344 94.707031 91.324219 93.332031 C 92.121094 91.957031 92.984375 90.621094 93.914062 89.332031 C 94.839844 88.039062 95.828125 86.796875 96.878906 85.605469 C 97.929688 84.410156 99.035156 83.273438 100.195312 82.1875 C 101.359375 81.101562 102.570312 80.074219 103.832031 79.109375 C 105.09375 78.144531 106.402344 77.242188 107.753906 76.40625 C 109.105469 75.566406 110.492188 74.796875 111.921875 74.097656 C 113.347656 73.394531 114.804688 72.765625 116.292969 72.207031 C 117.78125 71.648438 119.292969 71.167969 120.828125 70.757812 C 122.367188 70.347656 123.917969 70.015625 125.488281 69.757812 C 127.054688 69.5 128.632812 69.324219 130.21875 69.222656 C 131.804688 69.121094 133.394531 69.09375 134.984375 69.148438 C 136.570312 69.203125 138.152344 69.335938 139.730469 69.546875 Z M 138.292969 80.335938 C 137.070312 80.171875 135.84375 80.070312 134.609375 80.027344 C 133.378906 79.984375 132.148438 80.003906 130.914062 80.082031 C 129.683594 80.160156 128.460938 80.300781 127.246094 80.5 C 126.027344 80.699219 124.824219 80.957031 123.632812 81.273438 C 122.441406 81.589844 121.265625 81.96875 120.113281 82.398438 C 118.957031 82.832031 117.824219 83.320312 116.71875 83.863281 C 115.613281 84.410156 114.535156 85.003906 113.488281 85.65625 C 112.4375 86.304688 111.425781 87.003906 110.445312 87.753906 C 109.464844 88.503906 108.523438 89.300781 107.625 90.140625 C 106.722656 90.984375 105.863281 91.867188 105.050781 92.792969 C 104.234375 93.71875 103.46875 94.683594 102.75 95.683594 C 102.027344 96.6875 101.359375 97.71875 100.742188 98.789062 C 100.125 99.855469 99.558594 100.949219 99.050781 102.070312 C 98.539062 103.195312 98.085938 104.339844 97.6875 105.507812 C 97.289062 106.675781 96.949219 107.859375 96.667969 109.058594 C 96.382812 110.261719 96.164062 111.472656 96 112.695312 C 95.835938 113.917969 95.734375 115.144531 95.691406 116.375 C 95.648438 117.609375 95.667969 118.839844 95.746094 120.070312 C 95.828125 121.300781 95.964844 122.527344 96.164062 123.742188 C 96.363281 124.960938 96.621094 126.164062 96.941406 127.355469 C 97.257812 128.550781 97.632812 129.722656 98.066406 130.878906 C 98.496094 132.03125 98.984375 133.164062 99.53125 134.269531 C 100.074219 135.375 100.671875 136.453125 101.320312 137.503906 C 101.96875 138.550781 102.667969 139.566406 103.417969 140.542969 C 104.167969 141.523438 104.964844 142.464844 105.804688 143.367188 C 106.648438 144.265625 107.53125 145.125 108.457031 145.941406 C 109.382812 146.753906 110.347656 147.519531 111.347656 148.242188 C 112.347656 148.960938 113.382812 149.628906 114.449219 150.25 C 115.515625 150.867188 116.613281 151.429688 117.734375 151.941406 C 118.859375 152.453125 120.003906 152.90625 121.167969 153.304688 C 122.335938 153.703125 123.519531 154.042969 124.722656 154.324219 C 125.921875 154.605469 127.132812 154.828125 128.355469 154.992188 C 129.578125 155.152344 130.804688 155.257812 132.039062 155.296875 C 133.269531 155.339844 134.503906 155.324219 135.734375 155.242188 C 136.964844 155.164062 138.1875 155.027344 139.40625 154.828125 C 140.621094 154.628906 141.824219 154.367188 143.015625 154.050781 C 144.210938 153.734375 145.382812 153.359375 146.539062 152.925781 C 147.691406 152.492188 148.824219 152.003906 149.929688 151.460938 C 151.035156 150.917969 152.113281 150.320312 153.160156 149.671875 C 154.210938 149.019531 155.222656 148.320312 156.203125 147.570312 C 157.183594 146.824219 158.125 146.027344 159.023438 145.183594 C 159.925781 144.34375 160.785156 143.460938 161.597656 142.535156 C 162.414062 141.605469 163.179688 140.644531 163.898438 139.640625 C 164.621094 138.640625 165.289062 137.605469 165.90625 136.539062 C 166.523438 135.472656 167.089844 134.375 167.597656 133.253906 C 168.109375 132.132812 168.566406 130.988281 168.960938 129.820312 C 169.359375 128.652344 169.699219 127.46875 169.980469 126.265625 C 170.265625 125.066406 170.488281 123.855469 170.648438 122.632812 C 170.8125 121.410156 170.914062 120.183594 170.957031 118.949219 C 171 117.71875 170.980469 116.484375 170.902344 115.253906 C 170.824219 114.023438 170.683594 112.800781 170.484375 111.582031 C 170.285156 110.367188 170.027344 109.160156 169.710938 107.96875 C 169.390625 106.777344 169.015625 105.605469 168.585938 104.449219 C 168.152344 103.292969 167.664062 102.164062 167.121094 101.054688 C 166.574219 99.949219 165.980469 98.871094 165.328125 97.824219 C 164.679688 96.773438 163.980469 95.761719 163.230469 94.78125 C 162.480469 93.800781 161.6875 92.863281 160.84375 91.960938 C 160.003906 91.058594 159.117188 90.199219 158.191406 89.386719 C 157.265625 88.570312 156.304688 87.804688 155.300781 87.085938 C 154.300781 86.363281 153.265625 85.695312 152.199219 85.078125 C 151.132812 84.460938 150.035156 83.894531 148.914062 83.382812 C 147.792969 82.875 146.648438 82.417969 145.480469 82.019531 C 144.3125 81.621094 143.128906 81.28125 141.929688 81 C 140.726562 80.71875 139.515625 80.496094 138.292969 80.335938 Z M 138.292969 80.335938 "/><path style=" stroke:none;fill-rule:nonzero;fill:#2e5171;fill-opacity:1;" d="M 105.859375 177.363281 L 102.660156 175.773438 C 99.628906 174.273438 95.984375 175.503906 94.480469 178.53125 L 73.460938 220.9375 C 71.960938 223.96875 73.191406 227.613281 76.21875 229.117188 L 79.417969 230.703125 C 82.449219 232.203125 86.09375 230.976562 87.597656 227.945312 L 108.617188 185.539062 C 110.117188 182.511719 108.886719 178.863281 105.859375 177.363281 Z M 105.859375 177.363281 "/><path style=" stroke:none;fill-rule:nonzero;fill:#ffffff;fill-opacity:1;" d="M 115.949219 92.339844 C 116.078125 92.609375 116.246094 92.855469 116.460938 93.078125 C 116.675781 93.296875 116.929688 93.492188 117.21875 93.65625 C 117.511719 93.824219 117.835938 93.957031 118.191406 94.0625 C 118.550781 94.167969 118.933594 94.238281 119.34375 94.273438 C 119.753906 94.3125 120.183594 94.316406 120.628906 94.285156 C 121.074219 94.257812 121.53125 94.195312 122 94.097656 C 122.464844 94 122.933594 93.875 123.398438 93.714844 C 123.867188 93.554688 124.328125 93.367188 124.777344 93.152344 C 125.230469 92.9375 125.664062 92.699219 126.082031 92.433594 C 126.5 92.171875 126.894531 91.886719 127.261719 91.585938 C 127.628906 91.285156 127.964844 90.96875 128.269531 90.640625 C 128.574219 90.3125 128.839844 89.976562 129.070312 89.632812 C 129.296875 89.289062 129.484375 88.949219 129.628906 88.605469 C 129.773438 88.261719 129.871094 87.925781 129.925781 87.59375 C 129.980469 87.261719 129.988281 86.945312 129.953125 86.636719 C 129.914062 86.332031 129.832031 86.046875 129.703125 85.777344 C 129.574219 85.507812 129.402344 85.261719 129.191406 85.039062 C 128.976562 84.820312 128.722656 84.625 128.433594 84.460938 C 128.140625 84.292969 127.816406 84.160156 127.457031 84.054688 C 127.101562 83.953125 126.71875 83.878906 126.308594 83.84375 C 125.898438 83.804688 125.46875 83.800781 125.023438 83.832031 C 124.574219 83.859375 124.117188 83.925781 123.652344 84.019531 C 123.1875 84.117188 122.71875 84.242188 122.25 84.402344 C 121.785156 84.5625 121.324219 84.75 120.871094 84.964844 C 120.421875 85.179688 119.984375 85.417969 119.566406 85.683594 C 119.148438 85.949219 118.757812 86.230469 118.390625 86.53125 C 118.019531 86.835938 117.683594 87.148438 117.378906 87.476562 C 117.074219 87.808594 116.808594 88.140625 116.582031 88.484375 C 116.351562 88.828125 116.164062 89.171875 116.023438 89.511719 C 115.878906 89.855469 115.777344 90.195312 115.722656 90.523438 C 115.667969 90.855469 115.660156 91.171875 115.699219 91.480469 C 115.738281 91.785156 115.820312 92.070312 115.949219 92.339844 Z M 115.949219 92.339844 "/><path style=" stroke:none;fill-rule:nonzero;fill:#1c3144;fill-opacity:1;" d="M 66.757812 317.398438 L 74.164062 323.871094 L 60.96875 323.339844 L 61.210938 317.363281 Z M 66.757812 317.398438 "/><path style=" stroke:none;fill-rule:nonzero;fill:#1c3144;fill-opacity:1;" d="M 61.023438 317.167969 L 60.769531 323.527344 L 74.707031 324.085938 L 66.832031 317.203125 L 66.761719 317.203125 Z M 61.394531 317.558594 L 66.683594 317.589844 L 73.617188 323.652344 L 61.171875 323.152344 Z M 61.394531 317.558594 "/><path style=" stroke:none;fill-rule:nonzero;fill:#ffab00;fill-opacity:1;" d="M 59.453125 219.113281 L 71.785156 267.769531 C 72.15625 268.683594 72.34375 269.632812 72.351562 270.617188 L 69.652344 317.050781 C 69.652344 317.050781 70.054688 318.699219 64.925781 318.972656 C 59.800781 319.25 60.242188 317.054688 60.242188 317.054688 L 57.164062 272.675781 L 36.042969 227.464844 Z M 59.453125 219.113281 "/><g clip-rule="nonzero" clip-path="url(#8ff197bd4a)"><path style=" stroke:none;fill-rule:nonzero;fill:#1c3144;fill-opacity:1;" d="M 19.878906 316.832031 L 24.25 325.640625 L 12.257812 320.113281 L 14.761719 314.679688 Z M 19.878906 316.832031 "/></g><path style=" stroke:none;fill-rule:nonzero;fill:#1c3144;fill-opacity:1;" d="M 49.488281 232.039062 L 48.789062 254.75 L 44.496094 245.554688 Z M 49.488281 232.039062 "/><path style=" stroke:none;fill-rule:nonzero;fill:#ffab00;fill-opacity:1;" d="M 25.984375 222.050781 L 50.808594 223.269531 L 43.632812 272.949219 C 43.628906 273.933594 43.441406 274.882812 43.070312 275.796875 L 22.851562 317.683594 C 22.851562 317.683594 22.59375 319.359375 17.75 317.65625 C 12.90625 315.953125 14.152344 314.09375 14.152344 314.09375 L 28.246094 271.902344 Z M 25.984375 222.050781 "/><path style=" stroke:none;fill-rule:nonzero;fill:#3f88c5;fill-opacity:1;" d="M 52.816406 156.371094 C 52.476562 156.488281 62.355469 170.988281 62.851562 229.449219 C 50.957031 232.128906 36.914062 233.289062 24.742188 229.992188 C 22.1875 223.238281 24.597656 134.753906 52.816406 156.371094 Z M 52.816406 156.371094 "/><path style=" stroke:none;fill-rule:nonzero;fill:#1c3144;fill-opacity:1;" d="M 43.140625 164.636719 C 47.355469 164.515625 52.359375 167.242188 52.585938 174.554688 L 52.871094 203.734375 L 62.046875 206.136719 C 62.261719 209.617188 62.457031 213.242188 62.589844 217.1875 L 47.113281 215.105469 C 43.84375 214.574219 40.628906 213.632812 39.847656 209.4375 L 34.261719 174.957031 C 33.652344 169.902344 37.253906 165.308594 42.308594 164.699219 C 42.582031 164.664062 42.859375 164.644531 43.140625 164.636719 Z M 43.140625 164.636719 "/><path style=" stroke:none;fill-rule:nonzero;fill:#f5987c;fill-opacity:1;" d="M 94.972656 210.671875 C 94.574219 210.691406 89.222656 210.699219 88.167969 210.6875 C 87.269531 210.675781 87.023438 210.238281 87.351562 210.070312 C 87.675781 209.90625 88.699219 209.101562 88.933594 208.265625 C 89.097656 207.679688 88.847656 207.421875 88.683594 207.324219 C 88.621094 207.285156 88.507812 207.296875 88.449219 207.339844 C 85.007812 209.59375 82.925781 209.238281 81.214844 210.277344 C 81.09375 210.351562 80.984375 210.429688 80.878906 210.515625 L 78.160156 209.128906 L 75.339844 216.910156 L 80.53125 216.390625 C 82.464844 218.277344 86.710938 218.539062 87.03125 218.617188 C 87.710938 218.785156 90.769531 218.875 91.453125 218.910156 C 91.738281 218.921875 91.972656 218.832031 92.09375 218.628906 C 92.222656 218.425781 92.25 218.101562 91.964844 217.886719 C 91.675781 217.675781 88.847656 217.621094 88.621094 217.328125 C 88.394531 217.035156 88.628906 216.917969 88.898438 216.933594 C 89.167969 216.949219 93.875 217.132812 94.105469 217.144531 C 95.027344 217.191406 95.371094 216.851562 95.363281 216.453125 C 95.359375 216.128906 95.046875 215.808594 94.492188 215.777344 C 93.054688 215.691406 89.71875 215.507812 89.394531 215.261719 C 89.03125 214.988281 89.195312 214.730469 89.421875 214.699219 C 89.925781 214.632812 94.839844 214.605469 95.929688 214.609375 C 96.5625 214.613281 96.667969 214.199219 96.707031 213.867188 C 96.753906 213.441406 96.339844 213.265625 95.933594 213.195312 C 95.535156 213.125 91.175781 213.039062 90.347656 212.894531 C 89.523438 212.753906 89.324219 212.773438 89.492188 212.511719 C 89.660156 212.253906 94.675781 212.191406 95.164062 212.046875 C 95.652344 211.902344 95.9375 211.671875 95.863281 211.179688 C 95.769531 210.777344 95.417969 210.671875 94.972656 210.671875 Z M 94.972656 210.671875 "/><path style=" stroke:none;fill-rule:nonzero;fill:#3f88c5;fill-opacity:1;" d="M 52.84375 173.015625 L 53.128906 202.195312 L 79.355469 209.066406 C 79.636719 209.21875 81.320312 209.652344 80.785156 213.703125 C 80.25 217.757812 78.574219 217.644531 77.796875 217.660156 L 47.371094 213.566406 C 44.097656 213.03125 40.882812 212.09375 40.105469 207.898438 L 34.519531 173.417969 C 33.90625 168.363281 37.511719 163.769531 42.566406 163.15625 C 46.921875 162.632812 52.601562 165.214844 52.84375 173.015625 Z M 52.84375 173.015625 "/><path style=" stroke:none;fill-rule:nonzero;fill:#1c3144;fill-opacity:1;" d="M 52.480469 177.039062 C 52.40625 177.042969 52.339844 177.070312 52.289062 177.125 C 52.238281 177.179688 52.210938 177.246094 52.214844 177.320312 L 52.9375 202.148438 C 52.941406 202.285156 53.007812 202.367188 53.136719 202.40625 L 62.019531 204.875 C 62.09375 204.894531 62.164062 204.886719 62.226562 204.847656 C 62.292969 204.8125 62.335938 204.757812 62.355469 204.683594 C 62.378906 204.613281 62.367188 204.542969 62.332031 204.476562 C 62.292969 204.414062 62.238281 204.371094 62.167969 204.347656 L 53.476562 201.933594 L 52.761719 177.304688 C 52.757812 177.230469 52.730469 177.164062 52.675781 177.113281 C 52.621094 177.0625 52.554688 177.035156 52.480469 177.039062 Z M 52.480469 177.039062 "/><path style=" stroke:none;fill-rule:nonzero;fill:#f5987c;fill-opacity:1;" d="M 42.367188 144.398438 L 42.722656 154.207031 C 45.175781 155.316406 46.539062 156.054688 51.8125 156.9375 L 51.355469 148.605469 Z M 42.367188 144.398438 "/><path style=" stroke:none;fill-rule:nonzero;fill:#1c3144;fill-opacity:1;" d="M 43.574219 147.800781 C 43.574219 147.800781 47.273438 153.6875 51.671875 154.382812 L 51.355469 148.609375 L 51.355469 148.605469 L 50.539062 148.222656 Z M 43.574219 147.800781 "/><path style=" stroke:none;fill-rule:nonzero;fill:#f5987c;fill-opacity:1;" d="M 40.480469 145.414062 C 40.480469 145.414062 46.820312 152.089844 51.335938 151.574219 C 55.851562 151.058594 56.433594 135.195312 52.644531 131.683594 C 48.855469 128.167969 38.765625 132.914062 38.765625 132.914062 Z M 40.480469 145.414062 "/><path style=" stroke:none;fill-rule:nonzero;fill:#1c3144;fill-opacity:1;" d="M 47.773438 136.546875 C 47.773438 136.546875 54.246094 139.554688 55.964844 135.363281 C 57.6875 131.175781 49.324219 124.492188 42.042969 129.785156 C 42.054688 129.804688 37.363281 129.949219 36.277344 133.617188 C 34.960938 138.070312 36.707031 143.730469 41.945312 146.925781 C 41.945312 146.925781 43.09375 145.386719 44.003906 143.960938 C 45.296875 141.925781 46.785156 139.742188 46.394531 141.09375 Z M 47.773438 136.546875 "/><path style=" stroke:none;fill-rule:nonzero;fill:#f5987c;fill-opacity:1;" d="M 42.800781 141.769531 C 42.964844 142.234375 43.175781 142.664062 43.425781 143.058594 C 43.679688 143.453125 43.953125 143.78125 44.253906 144.046875 C 44.550781 144.308594 44.851562 144.488281 45.152344 144.582031 C 45.457031 144.675781 45.734375 144.675781 45.992188 144.585938 C 46.25 144.492188 46.464844 144.316406 46.636719 144.054688 C 46.8125 143.789062 46.929688 143.460938 46.996094 143.066406 C 47.058594 142.675781 47.066406 142.246094 47.011719 141.78125 C 46.953125 141.316406 46.84375 140.851562 46.679688 140.386719 C 46.511719 139.921875 46.304688 139.492188 46.050781 139.097656 C 45.800781 138.703125 45.523438 138.371094 45.222656 138.109375 C 44.925781 137.84375 44.625 137.664062 44.324219 137.570312 C 44.023438 137.480469 43.742188 137.476562 43.484375 137.570312 C 43.230469 137.660156 43.011719 137.839844 42.839844 138.101562 C 42.664062 138.363281 42.546875 138.691406 42.480469 139.085938 C 42.417969 139.480469 42.414062 139.910156 42.46875 140.375 C 42.523438 140.839844 42.632812 141.304688 42.800781 141.769531 Z M 42.800781 141.769531 "/><path style=" stroke:none;fill-rule:nonzero;fill:#c4c4c4;fill-opacity:1;" d="M 232.578125 66.914062 L 235.277344 72.777344 L 241.007812 66.328125 Z M 232.578125 66.914062 "/><path style=" stroke:none;fill-rule:nonzero;fill:#c4c4c4;fill-opacity:1;" d="M 266.992188 79.613281 L 322.871094 79.613281 L 322.871094 83.710938 L 266.992188 83.710938 Z M 266.992188 79.613281 "/><path style=" stroke:none;fill-rule:nonzero;fill:#c4c4c4;fill-opacity:1;" d="M 266.992188 90.679688 L 311.28125 90.679688 L 311.28125 94.777344 L 266.992188 94.777344 Z M 266.992188 90.679688 "/><path style=" stroke:none;fill-rule:nonzero;fill:#c4c4c4;fill-opacity:1;" d="M 266.992188 101.742188 L 322.34375 101.742188 L 322.34375 105.839844 L 266.992188 105.839844 Z M 266.992188 101.742188 "/><path style=" stroke:none;fill-rule:nonzero;fill:#c4c4c4;fill-opacity:1;" d="M 266.992188 112.808594 L 322.34375 112.808594 L 322.34375 116.90625 L 266.992188 116.90625 Z M 266.992188 112.808594 "/><path style=" stroke:none;fill-rule:nonzero;fill:#c4c4c4;fill-opacity:1;" d="M 266.992188 133.882812 L 322.871094 133.882812 L 322.871094 137.980469 L 266.992188 137.980469 Z M 266.992188 133.882812 "/><path style=" stroke:none;fill-rule:nonzero;fill:#c4c4c4;fill-opacity:1;" d="M 266.992188 144.945312 L 311.28125 144.945312 L 311.28125 149.046875 L 266.992188 149.046875 Z M 266.992188 144.945312 "/><path style=" stroke:none;fill-rule:nonzero;fill:#c4c4c4;fill-opacity:1;" d="M 266.992188 156.011719 L 322.34375 156.011719 L 322.34375 160.109375 L 266.992188 160.109375 Z M 266.992188 156.011719 "/><path style=" stroke:none;fill-rule:nonzero;fill:#3f88c5;fill-opacity:1;" d="M 266.992188 167.078125 L 322.34375 167.078125 L 322.34375 171.175781 L 266.992188 171.175781 Z M 266.992188 167.078125 "/><path style=" stroke:none;fill-rule:nonzero;fill:#f9f9f9;fill-opacity:1;" d="M 249.328125 165.53125 L 362.796875 165.53125 L 362.796875 236.667969 L 249.328125 236.667969 Z M 249.328125 165.53125 "/><path style=" stroke:none;fill-rule:nonzero;fill:#2e5171;fill-opacity:1;" d="M 249.328125 165.53125 L 249.328125 175.546875 L 362.796875 175.546875 L 362.796875 165.53125 Z M 249.328125 165.53125 "/><g clip-rule="nonzero" clip-path="url(#f9b4971bf6)"><path style=" stroke:none;fill-rule:nonzero;fill:#2e5171;fill-opacity:1;" d="M 249.058594 165.261719 L 249.058594 236.9375 L 363.066406 236.9375 L 363.066406 165.261719 Z M 249.597656 165.800781 L 362.53125 165.800781 L 362.53125 236.398438 L 249.597656 236.398438 Z M 249.597656 165.800781 "/></g><path style=" stroke:none;fill-rule:nonzero;fill:#c4c4c4;fill-opacity:1;" d="M 317.488281 189.609375 L 317.488281 208.539062 L 303.496094 208.539062 L 303.496094 210.363281 L 319.308594 210.363281 L 319.308594 191.429688 L 331.625 191.429688 L 331.625 189.609375 Z M 317.488281 189.609375 "/><path style=" stroke:none;fill-rule:nonzero;fill:#3f88c5;fill-opacity:1;" d="M 284.085938 181.117188 C 282.480469 181.117188 280.886719 181.273438 279.308594 181.585938 C 277.730469 181.902344 276.199219 182.367188 274.714844 182.980469 C 273.226562 183.597656 271.816406 184.351562 270.476562 185.246094 C 269.140625 186.140625 267.902344 187.15625 266.765625 188.292969 C 266.199219 188.859375 265.660156 189.453125 265.152344 190.074219 C 264.640625 190.695312 264.164062 191.335938 263.71875 192.003906 C 263.273438 192.671875 262.863281 193.359375 262.484375 194.066406 C 262.105469 194.773438 261.761719 195.5 261.457031 196.242188 C 261.148438 196.980469 260.878906 197.734375 260.644531 198.503906 C 260.414062 199.273438 260.21875 200.050781 260.0625 200.835938 C 259.90625 201.625 259.789062 202.417969 259.707031 203.214844 C 259.628906 204.011719 259.589844 204.8125 259.589844 205.617188 C 259.589844 206.417969 259.628906 207.21875 259.707031 208.015625 C 259.789062 208.816406 259.90625 209.609375 260.0625 210.394531 C 260.21875 211.183594 260.414062 211.960938 260.644531 212.726562 C 260.878906 213.496094 261.148438 214.25 261.457031 214.992188 C 261.761719 215.734375 262.105469 216.457031 262.484375 217.164062 C 262.863281 217.871094 263.273438 218.558594 263.71875 219.226562 C 264.164062 219.894531 264.640625 220.539062 265.152344 221.160156 C 265.660156 221.777344 266.199219 222.371094 266.765625 222.941406 C 267.332031 223.507812 267.925781 224.046875 268.546875 224.554688 C 269.167969 225.0625 269.8125 225.542969 270.476562 225.988281 C 271.144531 226.433594 271.832031 226.84375 272.539062 227.222656 C 273.246094 227.601562 273.972656 227.945312 274.714844 228.25 C 275.453125 228.558594 276.207031 228.828125 276.976562 229.0625 C 277.746094 229.292969 278.523438 229.488281 279.308594 229.644531 C 280.09375 229.800781 280.886719 229.917969 281.6875 229.996094 C 282.484375 230.078125 283.285156 230.117188 284.089844 230.117188 C 284.890625 230.117188 285.691406 230.078125 286.488281 229.996094 C 287.289062 229.917969 288.082031 229.800781 288.867188 229.644531 C 289.652344 229.488281 290.429688 229.292969 291.199219 229.0625 C 291.96875 228.828125 292.722656 228.558594 293.460938 228.25 C 294.203125 227.945312 294.929688 227.601562 295.636719 227.222656 C 296.34375 226.84375 297.03125 226.433594 297.699219 225.988281 C 298.363281 225.542969 299.007812 225.0625 299.628906 224.554688 C 300.25 224.046875 300.84375 223.507812 301.410156 222.941406 C 301.976562 222.371094 302.515625 221.777344 303.023438 221.160156 C 303.535156 220.539062 304.011719 219.894531 304.457031 219.226562 C 304.902344 218.558594 305.316406 217.871094 305.691406 217.164062 C 306.070312 216.457031 306.414062 215.734375 306.71875 214.992188 C 307.027344 214.25 307.296875 213.496094 307.53125 212.726562 C 307.761719 211.960938 307.957031 211.183594 308.113281 210.394531 C 308.269531 209.609375 308.390625 208.816406 308.46875 208.015625 C 308.546875 207.21875 308.585938 206.417969 308.585938 205.617188 C 308.585938 204.8125 308.546875 204.011719 308.46875 203.214844 C 308.390625 202.414062 308.269531 201.625 308.113281 200.835938 C 307.957031 200.050781 307.761719 199.273438 307.53125 198.503906 C 307.296875 197.734375 307.027344 196.980469 306.71875 196.238281 C 306.414062 195.5 306.070312 194.773438 305.691406 194.066406 C 305.316406 193.359375 304.902344 192.671875 304.457031 192.003906 C 304.011719 191.335938 303.535156 190.695312 303.023438 190.074219 C 302.515625 189.453125 301.976562 188.859375 301.410156 188.292969 C 300.273438 187.152344 299.035156 186.136719 297.699219 185.246094 C 296.359375 184.351562 294.949219 183.597656 293.460938 182.980469 C 291.976562 182.367188 290.445312 181.902344 288.867188 181.585938 C 287.289062 181.273438 285.695312 181.117188 284.085938 181.117188 Z M 284.085938 188.378906 C 286.375 188.378906 288.570312 188.816406 290.683594 189.691406 C 292.792969 190.566406 294.660156 191.8125 296.273438 193.429688 C 296.671875 193.828125 297.050781 194.246094 297.410156 194.683594 C 297.769531 195.117188 298.105469 195.570312 298.417969 196.039062 C 298.730469 196.507812 299.019531 196.992188 299.285156 197.492188 C 299.554688 197.988281 299.792969 198.5 300.011719 199.019531 C 300.226562 199.542969 300.414062 200.074219 300.578125 200.613281 C 300.742188 201.152344 300.878906 201.699219 300.992188 202.253906 C 301.101562 202.808594 301.183594 203.363281 301.238281 203.925781 C 301.292969 204.488281 301.320312 205.050781 301.320312 205.617188 C 301.320312 206.179688 301.292969 206.742188 301.238281 207.304688 C 301.183594 207.867188 301.101562 208.425781 300.992188 208.976562 C 300.878906 209.53125 300.742188 210.078125 300.578125 210.617188 C 300.414062 211.160156 300.226562 211.691406 300.011719 212.210938 C 299.792969 212.734375 299.554688 213.242188 299.285156 213.742188 C 299.019531 214.238281 298.730469 214.722656 298.417969 215.191406 C 298.105469 215.660156 297.769531 216.113281 297.410156 216.550781 C 297.050781 216.984375 296.671875 217.402344 296.273438 217.804688 C 295.875 218.203125 295.457031 218.582031 295.019531 218.9375 C 294.585938 219.296875 294.132812 219.632812 293.664062 219.945312 C 293.191406 220.261719 292.710938 220.550781 292.210938 220.816406 C 291.714844 221.082031 291.203125 221.324219 290.683594 221.539062 C 290.160156 221.753906 289.632812 221.945312 289.089844 222.109375 C 288.550781 222.273438 288.003906 222.410156 287.449219 222.519531 C 286.898438 222.628906 286.339844 222.710938 285.777344 222.769531 C 285.214844 222.824219 284.652344 222.851562 284.089844 222.851562 C 283.523438 222.851562 282.960938 222.824219 282.398438 222.769531 C 281.835938 222.710938 281.28125 222.628906 280.726562 222.519531 C 280.171875 222.410156 279.625 222.273438 279.085938 222.109375 C 278.546875 221.945312 278.015625 221.753906 277.492188 221.539062 C 276.972656 221.324219 276.460938 221.082031 275.964844 220.816406 C 275.464844 220.550781 274.984375 220.261719 274.511719 219.945312 C 274.042969 219.632812 273.589844 219.296875 273.15625 218.9375 C 272.71875 218.582031 272.300781 218.203125 271.902344 217.804688 C 271.503906 217.402344 271.125 216.984375 270.765625 216.550781 C 270.40625 216.113281 270.070312 215.660156 269.757812 215.191406 C 269.445312 214.722656 269.15625 214.238281 268.890625 213.742188 C 268.621094 213.242188 268.382812 212.734375 268.164062 212.210938 C 267.949219 211.691406 267.761719 211.160156 267.597656 210.617188 C 267.433594 210.078125 267.296875 209.53125 267.183594 208.976562 C 267.074219 208.425781 266.992188 207.867188 266.9375 207.304688 C 266.882812 206.742188 266.855469 206.179688 266.855469 205.617188 C 266.855469 205.050781 266.882812 204.488281 266.9375 203.925781 C 266.992188 203.363281 267.074219 202.808594 267.183594 202.253906 C 267.296875 201.699219 267.433594 201.152344 267.597656 200.613281 C 267.761719 200.070312 267.949219 199.542969 268.164062 199.019531 C 268.382812 198.5 268.621094 197.988281 268.890625 197.492188 C 269.15625 196.992188 269.445312 196.507812 269.757812 196.039062 C 270.070312 195.570312 270.40625 195.117188 270.765625 194.679688 C 271.125 194.246094 271.503906 193.828125 271.902344 193.429688 C 273.519531 191.8125 275.382812 190.566406 277.492188 189.691406 C 279.605469 188.816406 281.804688 188.378906 284.089844 188.378906 Z M 284.085938 188.378906 "/><path style=" stroke:none;fill-rule:nonzero;fill:#c4c4c4;fill-opacity:1;" d="M 336.289062 184.4375 L 356.421875 184.4375 L 356.421875 186.671875 L 336.289062 186.671875 Z M 336.289062 184.4375 "/><path style=" stroke:none;fill-rule:nonzero;fill:#c4c4c4;fill-opacity:1;" d="M 336.289062 189.839844 L 351.859375 189.839844 L 351.859375 192.074219 L 336.289062 192.074219 Z M 336.289062 189.839844 "/><path style=" stroke:none;fill-rule:nonzero;fill:#c4c4c4;fill-opacity:1;" d="M 336.289062 195.238281 L 355.765625 195.238281 L 355.765625 197.476562 L 336.289062 197.476562 Z M 336.289062 195.238281 "/><path style=" stroke:none;fill-rule:nonzero;fill:#c4c4c4;fill-opacity:1;" d="M 326.542969 207.441406 L 349.375 207.441406 L 349.375 209.679688 L 326.542969 209.679688 Z M 326.542969 207.441406 "/><path style=" stroke:none;fill-rule:nonzero;fill:#c4c4c4;fill-opacity:1;" d="M 326.542969 212.84375 L 351.332031 212.84375 L 351.332031 215.082031 L 326.542969 215.082031 Z M 326.542969 212.84375 "/><path style=" stroke:none;fill-rule:nonzero;fill:#c4c4c4;fill-opacity:1;" d="M 326.542969 218.246094 L 349.375 218.246094 L 349.375 220.484375 L 326.542969 220.484375 Z M 326.542969 218.246094 "/><path style=" stroke:none;fill-rule:nonzero;fill:#c4c4c4;fill-opacity:1;" d="M 326.542969 223.648438 L 351.332031 223.648438 L 351.332031 225.886719 L 326.542969 225.886719 Z M 326.542969 223.648438 "/><path style=" stroke:none;fill-rule:nonzero;fill:#c4c4c4;fill-opacity:1;" d="M 334.226562 190.382812 C 334.226562 190.652344 334.171875 190.914062 334.070312 191.164062 C 333.964844 191.414062 333.820312 191.632812 333.628906 191.824219 C 333.433594 192.015625 333.214844 192.164062 332.964844 192.269531 C 332.714844 192.371094 332.453125 192.421875 332.183594 192.421875 C 331.914062 192.421875 331.652344 192.371094 331.402344 192.269531 C 331.152344 192.164062 330.929688 192.015625 330.738281 191.824219 C 330.546875 191.632812 330.398438 191.414062 330.296875 191.164062 C 330.191406 190.914062 330.140625 190.652344 330.140625 190.382812 C 330.140625 190.109375 330.191406 189.851562 330.296875 189.597656 C 330.398438 189.347656 330.546875 189.128906 330.738281 188.9375 C 330.929688 188.746094 331.152344 188.597656 331.402344 188.496094 C 331.652344 188.390625 331.914062 188.339844 332.183594 188.339844 C 332.453125 188.339844 332.714844 188.390625 332.964844 188.496094 C 333.214844 188.597656 333.433594 188.746094 333.628906 188.9375 C 333.820312 189.128906 333.964844 189.347656 334.070312 189.597656 C 334.171875 189.851562 334.226562 190.109375 334.226562 190.382812 Z M 334.226562 190.382812 "/><path style=" stroke:none;fill-rule:nonzero;fill:#f9f9f9;fill-opacity:1;" d="M 347.648438 170.558594 C 347.648438 170.828125 347.59375 171.09375 347.492188 171.34375 C 347.386719 171.597656 347.238281 171.820312 347.042969 172.011719 C 346.851562 172.203125 346.628906 172.351562 346.378906 172.457031 C 346.125 172.5625 345.863281 172.613281 345.589844 172.613281 C 345.316406 172.613281 345.054688 172.5625 344.804688 172.457031 C 344.550781 172.351562 344.328125 172.203125 344.136719 172.011719 C 343.945312 171.820312 343.796875 171.597656 343.691406 171.34375 C 343.585938 171.09375 343.535156 170.828125 343.535156 170.558594 C 343.535156 170.285156 343.585938 170.023438 343.691406 169.769531 C 343.796875 169.519531 343.945312 169.296875 344.136719 169.101562 C 344.328125 168.910156 344.550781 168.761719 344.804688 168.65625 C 345.054688 168.554688 345.316406 168.5 345.589844 168.5 C 345.863281 168.5 346.125 168.554688 346.378906 168.65625 C 346.628906 168.761719 346.851562 168.910156 347.042969 169.101562 C 347.238281 169.296875 347.386719 169.519531 347.492188 169.769531 C 347.59375 170.023438 347.648438 170.285156 347.648438 170.558594 Z M 347.648438 170.558594 "/><path style=" stroke:none;fill-rule:nonzero;fill:#f9f9f9;fill-opacity:1;" d="M 353.753906 170.558594 C 353.753906 170.828125 353.699219 171.09375 353.597656 171.34375 C 353.492188 171.597656 353.34375 171.820312 353.152344 172.011719 C 352.957031 172.203125 352.734375 172.351562 352.484375 172.457031 C 352.230469 172.5625 351.96875 172.613281 351.695312 172.613281 C 351.425781 172.613281 351.160156 172.5625 350.910156 172.457031 C 350.65625 172.351562 350.4375 172.203125 350.242188 172.011719 C 350.050781 171.820312 349.902344 171.597656 349.796875 171.34375 C 349.691406 171.09375 349.640625 170.828125 349.640625 170.558594 C 349.640625 170.285156 349.691406 170.023438 349.796875 169.769531 C 349.902344 169.519531 350.050781 169.296875 350.242188 169.101562 C 350.4375 168.910156 350.65625 168.761719 350.910156 168.65625 C 351.160156 168.554688 351.425781 168.5 351.695312 168.5 C 351.96875 168.5 352.230469 168.554688 352.484375 168.65625 C 352.734375 168.761719 352.957031 168.910156 353.152344 169.101562 C 353.34375 169.296875 353.492188 169.519531 353.597656 169.769531 C 353.699219 170.023438 353.753906 170.285156 353.753906 170.558594 Z M 353.753906 170.558594 "/><path style=" stroke:none;fill-rule:nonzero;fill:#f9f9f9;fill-opacity:1;" d="M 359.859375 170.558594 C 359.859375 170.828125 359.808594 171.09375 359.703125 171.34375 C 359.597656 171.597656 359.449219 171.820312 359.257812 172.011719 C 359.0625 172.203125 358.839844 172.351562 358.589844 172.457031 C 358.335938 172.5625 358.074219 172.613281 357.800781 172.613281 C 357.53125 172.613281 357.269531 172.5625 357.015625 172.457031 C 356.765625 172.351562 356.542969 172.203125 356.347656 172.011719 C 356.15625 171.820312 356.007812 171.597656 355.902344 171.34375 C 355.796875 171.09375 355.746094 170.828125 355.746094 170.558594 C 355.746094 170.285156 355.796875 170.023438 355.902344 169.769531 C 356.007812 169.519531 356.15625 169.296875 356.347656 169.101562 C 356.542969 168.910156 356.765625 168.761719 357.015625 168.65625 C 357.269531 168.554688 357.53125 168.5 357.800781 168.5 C 358.074219 168.5 358.335938 168.554688 358.589844 168.65625 C 358.839844 168.761719 359.0625 168.910156 359.257812 169.101562 C 359.449219 169.296875 359.597656 169.519531 359.703125 169.769531 C 359.808594 170.023438 359.859375 170.285156 359.859375 170.558594 Z M 359.859375 170.558594 "/><path style=" stroke:none;fill-rule:nonzero;fill:#ffab00;fill-opacity:1;" d="M 301.410156 188.292969 L 296.273438 193.429688 C 296.671875 193.828125 297.050781 194.246094 297.410156 194.683594 C 297.769531 195.117188 298.105469 195.570312 298.417969 196.039062 C 298.730469 196.511719 299.019531 196.992188 299.289062 197.492188 C 299.554688 197.988281 299.792969 198.5 300.011719 199.019531 C 300.226562 199.542969 300.417969 200.074219 300.578125 200.613281 C 300.742188 201.152344 300.882812 201.699219 300.992188 202.253906 C 301.101562 202.808594 301.183594 203.363281 301.238281 203.925781 C 301.292969 204.488281 301.320312 205.050781 301.320312 205.617188 C 301.320312 206.179688 301.292969 206.742188 301.238281 207.304688 C 301.183594 207.867188 301.101562 208.425781 300.992188 208.980469 C 300.882812 209.53125 300.742188 210.078125 300.578125 210.621094 C 300.417969 211.160156 300.226562 211.691406 300.011719 212.210938 C 299.792969 212.734375 299.554688 213.242188 299.289062 213.742188 C 299.019531 214.238281 298.730469 214.722656 298.417969 215.191406 C 298.105469 215.660156 297.769531 216.113281 297.410156 216.550781 C 297.050781 216.988281 296.671875 217.40625 296.273438 217.804688 L 301.410156 222.941406 C 301.976562 222.371094 302.515625 221.777344 303.027344 221.160156 C 303.535156 220.539062 304.011719 219.894531 304.457031 219.226562 C 304.902344 218.558594 305.316406 217.875 305.695312 217.164062 C 306.070312 216.457031 306.414062 215.734375 306.722656 214.992188 C 307.027344 214.25 307.296875 213.496094 307.53125 212.726562 C 307.765625 211.960938 307.957031 211.183594 308.117188 210.394531 C 308.273438 209.609375 308.390625 208.816406 308.46875 208.019531 C 308.546875 207.21875 308.585938 206.417969 308.585938 205.617188 C 308.585938 204.8125 308.546875 204.011719 308.46875 203.214844 C 308.390625 202.417969 308.273438 201.625 308.117188 200.835938 C 307.957031 200.050781 307.765625 199.273438 307.53125 198.503906 C 307.296875 197.738281 307.027344 196.980469 306.722656 196.242188 C 306.414062 195.5 306.070312 194.773438 305.695312 194.066406 C 305.316406 193.359375 304.902344 192.671875 304.457031 192.003906 C 304.011719 191.335938 303.535156 190.695312 303.027344 190.074219 C 302.515625 189.453125 301.976562 188.859375 301.410156 188.292969 Z M 301.410156 188.292969 "/><path style=" stroke:none;fill-rule:nonzero;fill:#376187;fill-opacity:1;" d="M 284.085938 181.117188 C 282.480469 181.117188 280.886719 181.273438 279.308594 181.585938 C 277.730469 181.902344 276.199219 182.367188 274.714844 182.980469 C 273.226562 183.597656 271.816406 184.351562 270.476562 185.246094 C 269.140625 186.140625 267.902344 187.15625 266.765625 188.292969 C 266.199219 188.859375 265.660156 189.453125 265.152344 190.074219 C 264.640625 190.695312 264.164062 191.335938 263.71875 192.003906 C 263.273438 192.671875 262.863281 193.359375 262.484375 194.066406 C 262.105469 194.773438 261.761719 195.5 261.457031 196.242188 C 261.148438 196.980469 260.878906 197.734375 260.644531 198.503906 C 260.414062 199.273438 260.21875 200.050781 260.0625 200.835938 C 259.90625 201.625 259.789062 202.417969 259.707031 203.214844 C 259.628906 204.011719 259.589844 204.8125 259.589844 205.617188 C 259.589844 206.417969 259.628906 207.21875 259.707031 208.015625 C 259.789062 208.816406 259.90625 209.609375 260.0625 210.394531 C 260.21875 211.183594 260.414062 211.960938 260.644531 212.726562 C 260.878906 213.496094 261.148438 214.25 261.457031 214.992188 C 261.761719 215.734375 262.105469 216.457031 262.484375 217.164062 C 262.863281 217.871094 263.273438 218.558594 263.71875 219.226562 C 264.164062 219.894531 264.640625 220.539062 265.152344 221.160156 C 265.660156 221.777344 266.199219 222.371094 266.765625 222.941406 L 271.902344 217.804688 C 271.503906 217.40625 271.125 216.988281 270.765625 216.550781 C 270.40625 216.113281 270.070312 215.660156 269.757812 215.191406 C 269.445312 214.722656 269.15625 214.238281 268.890625 213.742188 C 268.621094 213.242188 268.382812 212.734375 268.167969 212.210938 C 267.949219 211.691406 267.761719 211.160156 267.597656 210.621094 C 267.433594 210.078125 267.296875 209.53125 267.183594 208.980469 C 267.074219 208.425781 266.992188 207.867188 266.9375 207.304688 C 266.882812 206.742188 266.855469 206.179688 266.855469 205.617188 C 266.855469 205.050781 266.882812 204.488281 266.9375 203.925781 C 266.992188 203.367188 267.074219 202.808594 267.183594 202.253906 C 267.296875 201.699219 267.433594 201.152344 267.597656 200.613281 C 267.761719 200.074219 267.949219 199.542969 268.167969 199.019531 C 268.382812 198.5 268.621094 197.988281 268.890625 197.492188 C 269.15625 196.992188 269.445312 196.511719 269.757812 196.039062 C 270.070312 195.570312 270.40625 195.117188 270.765625 194.683594 C 271.125 194.246094 271.503906 193.828125 271.902344 193.429688 C 273.519531 191.8125 275.382812 190.566406 277.492188 189.691406 C 279.605469 188.816406 281.804688 188.378906 284.089844 188.378906 C 286.375 188.378906 288.570312 188.816406 290.683594 189.691406 C 292.792969 190.566406 294.660156 191.8125 296.273438 193.429688 L 301.410156 188.292969 C 300.273438 187.15625 299.035156 186.140625 297.699219 185.246094 C 296.359375 184.351562 294.949219 183.597656 293.464844 182.980469 C 291.976562 182.367188 290.445312 181.902344 288.867188 181.585938 C 287.289062 181.273438 285.695312 181.117188 284.089844 181.117188 Z M 284.085938 181.117188 "/></g></svg>